<svg id="Layer_1" data-name="Layer 1" xmlns="http://www.w3.org/2000/svg" viewBox="0 0 480 379"><defs><style>.cls-1,.cls-3,.cls-4{fill:#fff;}.cls-2,.cls-3,.cls-4{isolation:isolate;}.cls-3{font-size:222px;font-family:FuturaPT-Bold, Futura PT;font-weight:700;letter-spacing:-0.07em;}.cls-4{font-size:48px;font-family:HelveticaNeue-Light, Helvetica Neue;font-weight:300;letter-spacing:-0.03em;}</style></defs><title>Artboard 1</title><g id="Page-1"><g id="Desktop-HD-Copy-7"><g id="date_logo-group" data-name="date,logo-group"><g id="conference-logo"><path id="Path" class="cls-1" d="M47.08,225.19c-8.26,0-11.37-7.06-11.37-14.06,0-7.36,3.11-14.42,11.37-14.42,4.58,0,8.57,3.17,9.16,7.35h8.91c-1.13-9.71-8.86-15.12-18.07-15.12-12.95,0-20.58,9.71-20.58,22.16,0,12.13,7.63,21.84,20.58,21.84,10.27,0,17.48-6.71,18.42-17.19H56.58C55.88,221.29,52.72,225.19,47.08,225.19Z"/><path id="Path-2" data-name="Path" class="cls-1" d="M93.08,232.94c10.27,0,17.48-6.7,18.42-17.18h-8.9c-.7,5.51-3.85,9.41-9.52,9.41-8.26,0-11.37-7.06-11.37-14.06,0-7.35,3.11-14.41,11.37-14.41,4.58,0,8.57,3.18,9.15,7.35h8.91c-1.07-9.7-8.83-15.11-18.06-15.11-13,0-20.58,9.71-20.58,22.15C72.52,223.23,80.14,232.94,93.08,232.94Z"/><rect id="Rectangle" class="cls-1" x="119.5" y="189.94" width="9" height="42"/><polygon id="Path-3" data-name="Path" class="cls-1" points="174.71 202.17 174.71 231.94 183.5 231.94 183.5 189.94 170.28 189.94 160.83 218.82 160.71 218.82 150.72 189.94 137.5 189.94 137.5 231.94 146.29 231.94 146.29 202.47 146.41 202.47 156.88 231.94 164.12 231.94 174.59 202.17 174.71 202.17"/><path id="Path-4" data-name="Path" class="cls-1" d="M252.5,209.36H234.85v6.89h9.3c-.53,5.71-4,8.94-10,8.94-8.29,0-11.41-7.06-11.41-14.06,0-7.36,3.12-14.42,11.41-14.42a8.62,8.62,0,0,1,8.89,7.06H252c-1.14-9.54-9.24-14.83-17.83-14.83-13,0-20.65,9.71-20.65,22.16,0,12.13,7.65,21.84,20.65,21.84a14.2,14.2,0,0,0,11.53-5.77l.83,4.77h6Z"/><polygon id="Path-5" data-name="Path" class="cls-1" points="270.83 189.94 261.5 189.94 261.5 231.94 291.5 231.94 291.5 224.17 270.83 224.17 270.83 189.94"/><path id="Shape" class="cls-1" d="M316,188.94c-12.9,0-20.5,9.71-20.5,22.16,0,12.13,7.6,21.84,20.5,21.84s20.5-9.71,20.5-21.84C336.5,198.65,328.91,188.94,316,188.94Zm0,36.25c-8.23,0-11.33-7.06-11.33-14.06,0-7.36,3.1-14.42,11.33-14.42s11.33,7.06,11.33,14.42C327.33,218.13,324.23,225.19,316,225.19Z"/><path id="Shape-2" data-name="Shape" class="cls-1" d="M373.85,209.35c3.63-2,5.68-4.88,5.68-9,0-7.82-5.39-10.41-13.35-10.41H346.5v42h20.25c7.55,0,14.75-3.65,14.75-12.18C381.54,214.53,378.94,210.59,373.85,209.35Zm-18.14-12.24h8.6c3.28,0,6.32.83,6.32,4.83,0,3.53-2.4,5-5.62,5h-9.3Zm9.83,27.65h-9.83V213.24h10c3.93,0,6.62,1.7,6.62,6s-3.16,5.53-6.79,5.53Z"/><path id="Shape-3" data-name="Shape" class="cls-1" d="M400.4,189.94l-15.9,42h9.21l3.4-9.36h15.66l3.17,9.36h9.56l-15.66-42Zm-.88,25.76L405,200.29h.11l5.28,15.41Z"/><polygon id="Path-6" data-name="Path" class="cls-1" points="438.83 189.94 429.5 189.94 429.5 231.94 459.5 231.94 459.5 224.17 438.83 224.17 438.83 189.94"/><path id="Path-7" data-name="Path" class="cls-1" d="M47.08,284.19c-8.26,0-11.37-7.06-11.37-14.06,0-7.36,3.11-14.42,11.37-14.42,4.58,0,8.57,3.17,9.15,7.35h8.91c-1.13-9.71-8.85-15.12-18.06-15.12-13,0-20.58,9.71-20.58,22.16,0,12.13,7.62,21.84,20.58,21.84,10.27,0,17.48-6.71,18.42-17.19H56.59C55.88,280.3,52.71,284.19,47.08,284.19Z"/><path id="Shape-4" data-name="Shape" class="cls-1" d="M94,247.94c-12.9,0-20.5,9.71-20.5,22.16,0,12.13,7.6,21.84,20.5,21.84s20.5-9.69,20.5-21.81C114.5,257.65,106.9,247.94,94,247.94Zm0,36.25c-8.24,0-11.33-7.06-11.33-14.06,0-7.36,3.09-14.42,11.33-14.42s11.33,7.06,11.33,14.42C105.33,277.13,102.23,284.19,94,284.19Z"/><polygon id="Path-8" data-name="Path" class="cls-1" points="150.96 277.11 150.85 277.11 133.61 248.94 124.5 248.94 124.5 290.94 133.03 290.94 133.03 262.82 133.15 262.82 150.39 290.94 159.5 290.94 159.5 248.94 150.96 248.94 150.96 277.11"/><polygon id="Path-9" data-name="Path" class="cls-1" points="170.5 290.94 179.88 290.94 179.88 273.58 197.75 273.58 197.75 266.41 179.88 266.41 179.88 256.7 200.5 256.7 200.5 248.94 170.5 248.94 170.5 290.94"/><polygon id="Path-10" data-name="Path" class="cls-1" points="215.77 272.88 236.2 272.88 236.2 265.7 215.77 265.7 215.77 256.7 238.03 256.7 238.03 248.94 206.5 248.94 206.5 290.94 238.5 290.94 238.5 283.17 215.77 283.17 215.77 272.88"/><path id="Shape-5" data-name="Shape" class="cls-1" d="M276.65,271.17v-.11c4.63-1.89,6.62-5.59,6.62-10.53,0-6.36-4.74-11.59-12.23-11.59H248.5v42h9.19V274.47h9.25c5.27,0,7,3.4,7.14,8,.12,3.76.47,6.58,1.23,8.47h9.19c-1.23-1.94-1.64-4.77-1.76-9.94C282.69,277.58,281.28,272.41,276.65,271.17Zm-8.86-3.29h-10.1V256.11h10.1c4.09,0,6.32,1.77,6.32,5.83S271.86,267.88,267.79,267.88Z"/><polygon id="Path-11" data-name="Path" class="cls-1" points="301.77 272.88 322.2 272.88 322.2 265.7 301.77 265.7 301.77 256.7 324.03 256.7 324.03 248.94 292.5 248.94 292.5 290.94 324.5 290.94 324.5 283.17 301.77 283.17 301.77 272.88"/><polygon id="Path-12" data-name="Path" class="cls-1" points="360.96 277.11 360.85 277.11 343.61 248.94 334.5 248.94 334.5 290.94 343.03 290.94 343.03 262.82 343.15 262.82 360.39 290.94 369.5 290.94 369.5 248.94 360.96 248.94 360.96 277.11"/><path id="Path-13" data-name="Path" class="cls-1" d="M399.08,284.19c-8.26,0-11.37-7.06-11.37-14.06,0-7.36,3.11-14.42,11.37-14.42,4.58,0,8.57,3.17,9.16,7.35h8.91c-1.13-9.71-8.86-15.12-18.07-15.12-12.95,0-20.58,9.71-20.58,22.16,0,12.13,7.63,21.84,20.58,21.84,10.27,0,17.49-6.71,18.42-17.19h-8.89C407.91,280.3,404.75,284.19,399.08,284.19Z"/><polygon id="Path-14" data-name="Path" class="cls-1" points="436.77 272.88 457.2 272.88 457.2 265.7 436.77 265.7 436.77 256.7 459.03 256.7 459.03 248.94 427.5 248.94 427.5 290.94 459.5 290.94 459.5 283.17 436.77 283.17 436.77 272.88"/><path id="Shape-6" data-name="Shape" class="cls-1" d="M2.5,153.94v170h480v-170ZM6.06,176H478.94V301.91H6.06ZM478.94,320.37H6.06V305.48H478.94ZM6.06,172.44V157.5H478.94v14.94Z"/></g><g id="_2020" data-name="2020" class="cls-2"><text class="cls-3" transform="translate(-2.5 152.94)">2020</text></g><g id="Chicago-_-October-28" data-name="Chicago-|-October-28" class="cls-2"><text class="cls-4" transform="translate(2.5 371.94)">Chicago | October 28-29</text></g></g></g></g></svg>