<?xml version="1.0" encoding="UTF-8"?>
<svg width="480px" height="170px" viewBox="0 0 480 170" version="1.1" xmlns="http://www.w3.org/2000/svg" xmlns:xlink="http://www.w3.org/1999/xlink">
    <!-- Generator: Sketch 62 (91390) - https://sketch.com -->
    <title>conference-logo</title>
    <desc>Created with Sketch.</desc>
    <g id="Page-1" stroke="none" stroke-width="1" fill="none" fill-rule="evenodd">
        <g id="Desktop-HD-Copy-7" transform="translate(-482.000000, -472.000000)" fill="#FFFFFF" fill-rule="nonzero">
            <g id="date,logo-group" transform="translate(477.000000, 327.000000)">
                <g id="conference-logo" transform="translate(5.000000, 145.000000)">
                    <path d="M44.5844344,69.2536812 C36.3166836,69.2536812 33.2077828,62.1893568 33.2077828,55.1875484 C33.2077828,47.8333764 36.3166836,40.7690519 44.5844344,40.7690519 C49.1600116,40.7690519 53.1466531,43.9460088 53.7355888,48.123224 L62.6489037,48.123224 C61.5163351,38.4161715 53.7922172,33 44.5844344,33 C31.6278496,33 24,42.7127357 24,55.1648153 C24,67.2872643 31.6278496,77 44.5844344,77 C54.8511689,77 62.0599681,70.2937226 63,59.8137432 L54.0810222,59.8137432 C53.3844925,65.3492638 50.2189633,69.2536812 44.5844344,69.2536812 Z" id="Path"></path>
                    <path d="M90.5844344,77 C100.845506,77 108.059968,70.2971856 109,59.8226181 L100.103674,59.8226181 C99.4014811,65.3325587 96.2472775,69.23496 90.5844344,69.23496 C82.3166836,69.23496 79.2077828,62.1742835 79.2077828,55.1760909 C79.2077828,47.8257165 82.3166836,40.76504 90.5844344,40.76504 C95.1600116,40.76504 99.1466531,43.9403563 99.7299259,48.1154144 L108.643241,48.1154144 C107.572964,38.4133746 99.8148686,33 90.5844344,33 C77.6221867,33 70,42.7077201 70,55.1533695 C70.0226514,67.2922799 77.6448381,77 90.5844344,77 Z" id="Path"></path>
                    <rect id="Rectangle" x="117" y="34" width="9" height="42"></rect>
                    <polygon id="Path" points="172.20894 46.2353259 172.20894 76 181 76 181 34 167.778754 34 158.329232 62.8842305 158.207936 62.8842305 148.221246 34 135 34 135 76 143.79106 76 143.79106 46.5307006 143.912356 46.5307006 154.384229 76 161.615771 76 172.087644 46.2353259"></polygon>
                    <path d="M250,53.4198598 L232.349162,53.4198598 L232.349162,60.3079394 L241.648944,60.3079394 C241.120612,66.0195896 237.672251,69.2533498 231.650401,69.2533498 C223.356154,69.2533498 220.237291,62.1890899 220.237291,55.1873456 C220.237291,47.8332408 223.356154,40.7689809 231.650401,40.7689809 C236.002039,40.7689809 239.473125,43.1786721 240.53547,47.8332408 L249.477349,47.8332408 C248.341151,38.2967741 240.240058,33 231.650401,33 C218.646613,33 211,42.7126469 211,55.1646127 C211,67.2869508 218.646613,77 231.650401,77 C236.195784,77.0337667 240.482906,74.8893594 243.182811,71.2311152 L244.006555,75.9993486 L250,75.9993486 L250,53.4198598 Z" id="Path"></path>
                    <polygon id="Path" points="268.328744 34 259 34 259 76 289 76 289 68.2350555 268.328744 68.2350555"></polygon>
                    <path d="M313.5,33 C300.596561,33 293,42.7127357 293,55.1648153 C293,67.2872643 300.596561,77 313.5,77 C326.403439,77 334,67.2872643 334,55.1648153 C334,42.7127357 326.409078,33 313.5,33 Z M313.5,69.2536812 C305.266162,69.2536812 302.170014,62.1893568 302.170014,55.1875484 C302.170014,47.8333764 305.266162,40.7690519 313.5,40.7690519 C321.733838,40.7690519 324.829986,47.8333764 324.829986,55.1875484 C324.829986,62.1893568 321.733838,69.2536812 313.5,69.2536812 Z" id="Shape"></path>
                    <path d="M371.347464,53.4095212 C374.975708,51.4100622 377.027192,48.5301596 377.027192,44.4119556 C377.027192,36.5902083 371.641341,34 363.684071,34 L344,34 L344,76 L364.249218,76 C371.799582,76 378.999555,72.3532594 378.999555,63.8214769 C379.039115,58.5956181 376.439439,54.6535028 371.347464,53.4095212 Z M353.206245,41.1741953 L361.807783,41.1741953 C365.085635,41.1741953 368.131778,41.9978361 368.131778,46.0024344 C368.131778,49.5298891 365.729903,51.001082 362.514217,51.001082 L353.206245,51.001082 L353.206245,41.1741953 Z M363.039803,68.8258047 L353.206245,68.8258047 L353.206245,57.3005139 L363.214999,57.3005139 C367.137119,57.3005139 369.827219,59.0045983 369.827219,63.298891 C369.827219,67.5931837 366.668047,68.831485 363.039803,68.831485 L363.039803,68.8258047 Z" id="Shape"></path>
                    <path d="M397.900387,34 L382,76 L391.210555,76 L394.609284,66.6445767 L410.27176,66.6445767 L413.438243,76 L423,76 L407.343189,34 L397.900387,34 Z M397.022382,59.765756 L402.477342,44.3551528 L402.590633,44.3551528 L407.869992,59.765756 L397.022382,59.765756 Z" id="Shape"></path>
                    <polygon id="Path" points="436.32696 34 427 34 427 76 457 76 457 68.2350555 436.32696 68.2350555"></polygon>
                    <path d="M44.5844344,128.253681 C36.3166836,128.253681 33.2077828,121.189357 33.2077828,114.187548 C33.2077828,106.827693 36.3166836,99.7690519 44.5844344,99.7690519 C49.1600116,99.7690519 53.1466531,102.946009 53.7299259,107.123224 L62.6432409,107.123224 C61.5106723,97.4104882 53.7922172,92 44.5844344,92 C31.6221867,92 24,101.707052 24,114.164815 C24,126.287264 31.6221867,136 44.5844344,136 C54.845506,136 62.0599681,129.288039 63,118.813743 L54.0866851,118.813743 C53.3788297,124.366314 50.2133004,128.253681 44.5844344,128.253681 Z" id="Path"></path>
                    <path d="M91.4971806,92 C78.5955164,92 71,101.707052 71,114.164815 C71,126.287264 78.5955164,136 91.4971806,136 C104.398845,136 112,126.309997 112,114.187548 C112,101.707052 104.404484,92 91.4971806,92 Z M91.4971806,128.253681 C83.2644753,128.253681 80.1687526,121.189357 80.1687526,114.187548 C80.1687526,106.827693 83.2644753,99.7690519 91.4971806,99.7690519 C99.7298858,99.7690519 102.825609,106.827693 102.825609,114.187548 C102.825609,121.189357 99.7298858,128.253681 91.4971806,128.253681 Z" id="Shape"></path>
                    <polygon id="Path" points="148.464371 121.174195 148.352282 121.174195 131.11289 93 122 93 122 135 130.530024 135 130.530024 106.882608 130.647718 106.882608 147.88711 135 157 135 157 93 148.464371 93"></polygon>
                    <polygon id="Path" points="168 135 177.382574 135 177.382574 117.646741 195.253318 117.646741 195.253318 110.472545 177.382574 110.472545 177.382574 100.764945 198 100.764945 198 93 168 93"></polygon>
                    <polygon id="Path" points="213.269909 116.942386 233.696775 116.942386 233.696775 109.76251 213.269909 109.76251 213.269909 100.764945 235.526813 100.764945 235.526813 93 204 93 204 135 236 135 236 127.235055 213.269909 127.235055"></polygon>
                    <path d="M274.154498,115.232621 L274.154498,115.119015 C278.778144,113.233162 280.767781,109.529619 280.767781,104.587774 C280.767781,98.2315391 276.025436,93 268.536034,93 L246,93 L246,135 L255.190768,135 L255.190768,118.527184 L264.438059,118.527184 C269.706076,118.527184 271.463966,121.935353 271.577014,126.530701 C271.695714,130.296727 272.046161,133.114147 272.809232,135 L282,135 C280.767781,133.057344 280.36081,130.234244 280.24211,125.059508 C280.185586,121.645659 278.778144,116.470922 274.154498,115.232621 Z M265.285916,111.938058 L255.190768,111.938058 L255.190768,100.174195 L265.285916,100.174195 C269.383891,100.174195 271.605276,101.940763 271.605276,106.002164 C271.577014,110.177171 269.355629,111.938058 265.285916,111.938058 Z" id="Shape"></path>
                    <polygon id="Path" points="299.269909 116.942386 319.696775 116.942386 319.696775 109.76251 299.269909 109.76251 299.269909 100.764945 321.526813 100.764945 321.526813 93 290 93 290 135 322 135 322 127.235055 299.269909 127.235055"></polygon>
                    <polygon id="Path" points="358.464371 121.174195 358.346677 121.174195 341.11289 93 332 93 332 135 340.530024 135 340.530024 106.882608 340.647718 106.882608 357.88711 135 367 135 367 93 358.464371 93"></polygon>
                    <path d="M396.584434,128.253681 C388.316684,128.253681 385.207783,121.189357 385.207783,114.187548 C385.207783,106.827693 388.316684,99.7690519 396.584434,99.7690519 C401.160012,99.7690519 405.146653,102.946009 405.735589,107.123224 L414.648904,107.123224 C413.516335,97.4104882 405.792217,92 396.584434,92 C383.62785,92 376,101.707052 376,114.164815 C376,126.287264 383.62785,136 396.584434,136 C406.851169,136 414.065631,129.288039 415,118.813743 L406.109336,118.813743 C405.407144,124.366314 402.247277,128.253681 396.584434,128.253681 Z" id="Path"></path>
                    <polygon id="Path" points="434.269909 116.942386 454.696775 116.942386 454.696775 109.76251 434.269909 109.76251 434.269909 100.764945 456.526813 100.764945 456.526813 93 425 93 425 135 457 135 457 127.235055 434.269909 127.235055"></polygon>
                    <path d="M0,0 L0,170 L480,170 L480,0 L0,0 Z M3.55704057,22.0797133 L476.442959,22.0797133 L476.442959,147.972009 L3.55704057,147.972009 L3.55704057,22.0797133 Z M476.442959,166.431155 L3.55704057,166.431155 L3.55704057,151.540854 L476.442959,151.540854 L476.442959,166.431155 Z M3.55704057,18.5051215 L3.55704057,3.56309793 L476.442959,3.56309793 L476.442959,18.5051215 L3.55704057,18.5051215 Z" id="Shape"></path>
                </g>
            </g>
        </g>
    </g>
</svg>