<?xml version="1.0" encoding="UTF-8"?>
<svg width="669px" height="141px" viewBox="0 0 669 141" version="1.1" xmlns="http://www.w3.org/2000/svg" xmlns:xlink="http://www.w3.org/1999/xlink">
    <!-- Generator: Sketch 62 (91390) - https://sketch.com -->
    <title>Ourindustryischanging.Soarewe.</title>
    <desc>Created with Sketch.</desc>
    <g id="Page-1" stroke="none" stroke-width="1" fill="none" fill-rule="evenodd">
        <g id="top-banner-copy-9" transform="translate(-597.000000, -320.000000)" fill="#FFFFFF" fill-rule="nonzero">
            <path d="M725.4115,370.239 C728.990833,370.239 732.294833,369.639167 735.3235,368.4395 C738.352167,367.239833 740.958,365.578 743.141,363.454 C745.324,361.33 747.025167,358.842167 748.2445,355.9905 C749.463833,353.138833 750.0735,350.061 750.0735,346.757 C750.0735,343.453 749.463833,340.375167 748.2445,337.5235 C747.025167,334.671833 745.324,332.184 743.141,330.06 C740.958,327.936 738.352167,326.274167 735.3235,325.0745 C732.294833,323.874833 728.990833,323.275 725.4115,323.275 C721.792833,323.275 718.479,323.874833 715.47,325.0745 C712.461,326.274167 709.874833,327.936 707.7115,330.06 C705.548167,332.184 703.856833,334.671833 702.6375,337.5235 C701.418167,340.375167 700.8085,343.453 700.8085,346.757 C700.8085,350.061 701.418167,353.138833 702.6375,355.9905 C703.856833,358.842167 705.548167,361.33 707.7115,363.454 C709.874833,365.578 712.461,367.239833 715.47,368.4395 C718.479,369.639167 721.792833,370.239 725.4115,370.239 Z M725.4115,359.029 C723.720167,359.029 722.117333,358.724167 720.603,358.1145 C719.088667,357.504833 717.761167,356.649333 716.6205,355.548 C715.479833,354.446667 714.575167,353.148667 713.9065,351.654 C713.237833,350.159333 712.9035,348.527 712.9035,346.757 C712.9035,344.987 713.237833,343.354667 713.9065,341.86 C714.575167,340.365333 715.479833,339.067333 716.6205,337.966 C717.761167,336.864667 719.088667,336.009167 720.603,335.3995 C722.117333,334.789833 723.720167,334.485 725.4115,334.485 C727.102833,334.485 728.705667,334.789833 730.22,335.3995 C731.734333,336.009167 733.071667,336.864667 734.232,337.966 C735.392333,339.067333 736.306833,340.365333 736.9755,341.86 C737.644167,343.354667 737.9785,344.987 737.9785,346.757 C737.9785,348.527 737.644167,350.159333 736.9755,351.654 C736.306833,353.148667 735.392333,354.446667 734.232,355.548 C733.071667,356.649333 731.734333,357.504833 730.22,358.1145 C728.705667,358.724167 727.102833,359.029 725.4115,359.029 Z M772.4935,370.121 C777.842833,370.121 781.864667,369.098333 784.559,367.053 C787.253333,365.007667 788.6005,361.939667 788.6005,357.849 L788.6005,357.849 L788.6005,338.733 L777.9215,338.733 L777.9215,355.784 C777.9215,359.520667 776.112167,361.389 772.4935,361.389 C768.874833,361.389 767.0655,359.520667 767.0655,355.784 L767.0655,355.784 L767.0655,338.733 L756.3865,338.733 L756.3865,357.849 C756.3865,361.939667 757.733667,365.007667 760.428,367.053 C763.122333,369.098333 767.144167,370.121 772.4935,370.121 Z M806.5365,369 L806.5365,356.02 C806.5365,353.188 807.156,351.0345 808.395,349.5595 C809.634,348.0845 811.4925,347.347 813.9705,347.347 C815.6225,347.347 817.1565,347.701 818.5725,348.409 L818.5725,348.409 L818.5725,338.202 C818.139833,338.123333 817.756333,338.084 817.422,338.084 L817.422,338.084 L816.5075,338.084 C814.304833,338.084 812.3775,338.565833 810.7255,339.5295 C809.0735,340.493167 807.677167,341.879667 806.5365,343.689 L806.5365,343.689 L806.5365,338.733 L795.8575,338.733 L795.8575,369 L806.5365,369 Z M848.6625,333.128 C849.4885,333.128 850.265333,332.970667 850.993,332.656 C851.720667,332.341333 852.359833,331.908667 852.9105,331.358 C853.461167,330.807333 853.893833,330.168167 854.2085,329.4405 C854.523167,328.712833 854.6805,327.936 854.6805,327.11 C854.6805,326.284 854.523167,325.507167 854.2085,324.7795 C853.893833,324.051833 853.461167,323.412667 852.9105,322.862 C852.359833,322.311333 851.720667,321.878667 850.993,321.564 C850.265333,321.249333 849.4885,321.092 848.6625,321.092 C847.8365,321.092 847.059667,321.249333 846.332,321.564 C845.604333,321.878667 844.965167,322.311333 844.4145,322.862 C843.863833,323.412667 843.431167,324.051833 843.1165,324.7795 C842.801833,325.507167 842.6445,326.284 842.6445,327.11 C842.6445,327.936 842.801833,328.712833 843.1165,329.4405 C843.431167,330.168167 843.863833,330.807333 844.4145,331.358 C844.965167,331.908667 845.604333,332.341333 846.332,332.656 C847.059667,332.970667 847.8365,333.128 848.6625,333.128 Z M854.0315,369 L854.0315,338.733 L843.3525,338.733 L843.3525,369 L854.0315,369 Z M872.0265,369 L872.0265,352.834 C872.0265,350.828 872.508333,349.284167 873.472,348.2025 C874.435667,347.120833 875.822167,346.58 877.6315,346.58 C878.300167,346.58 878.9295,346.678333 879.5195,346.875 C880.1095,347.071667 880.6405,347.406 881.1125,347.878 C881.663167,348.428667 882.046667,349.166167 882.263,350.0905 C882.479333,351.014833 882.5875,352.224333 882.5875,353.719 L882.5875,353.719 L882.5875,369 L893.2665,369 L893.2665,349.766 C893.2665,348.153333 893.109167,346.717667 892.7945,345.459 C892.479833,344.200333 891.889833,343.059667 891.0245,342.037 C889.9625,340.778333 888.674333,339.804833 887.16,339.1165 C885.645667,338.428167 883.8265,338.084 881.7025,338.084 C879.6965,338.084 877.946167,338.388833 876.4515,338.9985 C874.956833,339.608167 873.481833,340.798 872.0265,342.568 L872.0265,342.568 L872.0265,338.733 L861.3475,338.733 L861.3475,369 L872.0265,369 Z M914.6245,369.944 C918.5185,369.944 921.606167,368.508333 923.8875,365.637 L923.8875,365.637 L923.8875,369 L934.6255,369 L934.6255,320.03 L923.8875,320.03 L923.8875,341.742 C921.4095,339.106667 918.2825,337.789 914.5065,337.789 C912.2645,337.789 910.209333,338.211833 908.341,339.0575 C906.472667,339.903167 904.869833,341.053667 903.5325,342.509 C902.195167,343.964333 901.162667,345.6655 900.435,347.6125 C899.707333,349.5595 899.3435,351.614667 899.3435,353.778 C899.3435,356.059333 899.727,358.183333 900.494,360.15 C901.261,362.116667 902.332833,363.827667 903.7095,365.283 C905.086167,366.738333 906.698833,367.879 908.5475,368.705 C910.396167,369.531 912.421833,369.944 914.6245,369.944 Z M917.3385,360.74 C916.355167,360.74 915.440667,360.563 914.595,360.209 C913.749333,359.855 913.021667,359.363333 912.412,358.734 C911.802333,358.104667 911.3205,357.367167 910.9665,356.5215 C910.6125,355.675833 910.4355,354.761333 910.4355,353.778 C910.4355,352.834 910.622333,351.958833 910.996,351.1525 C911.369667,350.346167 911.861333,349.628333 912.471,348.999 C913.080667,348.369667 913.808333,347.878 914.654,347.524 C915.499667,347.17 916.3945,346.993 917.3385,346.993 C918.2825,346.993 919.177333,347.17 920.023,347.524 C920.868667,347.878 921.596333,348.369667 922.206,348.999 C922.815667,349.628333 923.307333,350.365833 923.681,351.2115 C924.054667,352.057167 924.2415,352.952 924.2415,353.896 C924.2415,354.84 924.054667,355.725 923.681,356.551 C923.307333,357.377 922.815667,358.104667 922.206,358.734 C921.596333,359.363333 920.868667,359.855 920.023,360.209 C919.177333,360.563 918.2825,360.74 917.3385,360.74 Z M957.9895,370.121 C963.338833,370.121 967.360667,369.098333 970.055,367.053 C972.749333,365.007667 974.0965,361.939667 974.0965,357.849 L974.0965,357.849 L974.0965,338.733 L963.4175,338.733 L963.4175,355.784 C963.4175,359.520667 961.608167,361.389 957.9895,361.389 C954.370833,361.389 952.5615,359.520667 952.5615,355.784 L952.5615,355.784 L952.5615,338.733 L941.8825,338.733 L941.8825,357.849 C941.8825,361.939667 943.229667,365.007667 945.924,367.053 C948.618333,369.098333 952.640167,370.121 957.9895,370.121 Z M991.5605,370.121 C993.6845,370.121 995.6315,369.8555 997.4015,369.3245 C999.1715,368.7935 1000.68583,368.046167 1001.9445,367.0825 C1003.20317,366.118833 1004.1865,364.929 1004.8945,363.513 C1005.6025,362.097 1005.9565,360.504 1005.9565,358.734 C1005.9565,356.374 1005.22883,354.436833 1003.7735,352.9225 C1002.31817,351.408167 1000.1155,350.356 997.1655,349.766 C996.1035,349.53 995.248,349.333333 994.599,349.176 C993.95,349.018667 993.458333,348.841667 993.124,348.645 C992.789667,348.448333 992.573333,348.241833 992.475,348.0255 C992.376667,347.809167 992.3275,347.524 992.3275,347.17 C992.3275,346.501333 992.632333,345.970333 993.242,345.577 C993.851667,345.183667 994.648167,344.987 995.6315,344.987 C997.5195,344.987 999.446833,345.498333 1001.4135,346.521 L1001.4135,346.521 L1005.0125,339.559 C1001.86583,338.261 998.620833,337.612 995.2775,337.612 C993.232167,337.612 991.373667,337.867667 989.702,338.379 C988.030333,338.890333 986.6045,339.618 985.4245,340.562 C984.2445,341.506 983.339833,342.6565 982.7105,344.0135 C982.081167,345.3705 981.7665,346.894667 981.7665,348.586 C981.7665,350.906667 982.425333,352.725833 983.743,354.0435 C985.060667,355.361167 987.3715,356.354333 990.6755,357.023 C991.658833,357.219667 992.455333,357.4065 993.065,357.5835 C993.674667,357.7605 994.136833,357.957167 994.4515,358.1735 C994.766167,358.389833 994.972667,358.625833 995.071,358.8815 C995.169333,359.137167 995.2185,359.461667 995.2185,359.855 C995.2185,360.523667 994.903833,361.074333 994.2745,361.507 C993.645167,361.939667 992.838833,362.156 991.8555,362.156 C989.180833,362.156 986.348833,361.133333 983.3595,359.088 L983.3595,359.088 L979.4655,366.64 C983.438167,368.960667 987.469833,370.121 991.5605,370.121 Z M1023.3025,369 L1023.3025,347.642 L1029.3795,347.642 L1029.3795,338.733 L1023.3025,338.733 L1023.3025,329.647 L1012.6235,329.647 L1012.6235,338.733 L1009.0835,338.733 L1009.0835,347.642 L1012.6235,347.642 L1012.6235,369 L1023.3025,369 Z M1044.0705,369 L1044.0705,356.02 C1044.0705,353.188 1044.69,351.0345 1045.929,349.5595 C1047.168,348.0845 1049.0265,347.347 1051.5045,347.347 C1053.1565,347.347 1054.6905,347.701 1056.1065,348.409 L1056.1065,348.409 L1056.1065,338.202 C1055.67383,338.123333 1055.29033,338.084 1054.956,338.084 L1054.956,338.084 L1054.0415,338.084 C1051.83883,338.084 1049.9115,338.565833 1048.2595,339.5295 C1046.6075,340.493167 1045.21117,341.879667 1044.0705,343.689 L1044.0705,343.689 L1044.0705,338.733 L1033.3915,338.733 L1033.3915,369 L1044.0705,369 Z M1073.4525,384.104 L1097.7605,338.733 L1085.4885,338.733 L1077.6415,354.25 L1069.5585,338.733 L1057.1685,338.733 L1071.8005,364.87 L1061.4755,384.104 L1073.4525,384.104 Z M1126.7885,333.128 C1127.6145,333.128 1128.39133,332.970667 1129.119,332.656 C1129.84667,332.341333 1130.48583,331.908667 1131.0365,331.358 C1131.58717,330.807333 1132.01983,330.168167 1132.3345,329.4405 C1132.64917,328.712833 1132.8065,327.936 1132.8065,327.11 C1132.8065,326.284 1132.64917,325.507167 1132.3345,324.7795 C1132.01983,324.051833 1131.58717,323.412667 1131.0365,322.862 C1130.48583,322.311333 1129.84667,321.878667 1129.119,321.564 C1128.39133,321.249333 1127.6145,321.092 1126.7885,321.092 C1125.9625,321.092 1125.18567,321.249333 1124.458,321.564 C1123.73033,321.878667 1123.09117,322.311333 1122.5405,322.862 C1121.98983,323.412667 1121.55717,324.051833 1121.2425,324.7795 C1120.92783,325.507167 1120.7705,326.284 1120.7705,327.11 C1120.7705,327.936 1120.92783,328.712833 1121.2425,329.4405 C1121.55717,330.168167 1121.98983,330.807333 1122.5405,331.358 C1123.09117,331.908667 1123.73033,332.341333 1124.458,332.656 C1125.18567,332.970667 1125.9625,333.128 1126.7885,333.128 Z M1132.1575,369 L1132.1575,338.733 L1121.4785,338.733 L1121.4785,369 L1132.1575,369 Z M1149.6805,370.121 C1151.8045,370.121 1153.7515,369.8555 1155.5215,369.3245 C1157.2915,368.7935 1158.80583,368.046167 1160.0645,367.0825 C1161.32317,366.118833 1162.3065,364.929 1163.0145,363.513 C1163.7225,362.097 1164.0765,360.504 1164.0765,358.734 C1164.0765,356.374 1163.34883,354.436833 1161.8935,352.9225 C1160.43817,351.408167 1158.2355,350.356 1155.2855,349.766 C1154.2235,349.53 1153.368,349.333333 1152.719,349.176 C1152.07,349.018667 1151.57833,348.841667 1151.244,348.645 C1150.90967,348.448333 1150.69333,348.241833 1150.595,348.0255 C1150.49667,347.809167 1150.4475,347.524 1150.4475,347.17 C1150.4475,346.501333 1150.75233,345.970333 1151.362,345.577 C1151.97167,345.183667 1152.76817,344.987 1153.7515,344.987 C1155.6395,344.987 1157.56683,345.498333 1159.5335,346.521 L1159.5335,346.521 L1163.1325,339.559 C1159.98583,338.261 1156.74083,337.612 1153.3975,337.612 C1151.35217,337.612 1149.49367,337.867667 1147.822,338.379 C1146.15033,338.890333 1144.7245,339.618 1143.5445,340.562 C1142.3645,341.506 1141.45983,342.6565 1140.8305,344.0135 C1140.20117,345.3705 1139.8865,346.894667 1139.8865,348.586 C1139.8865,350.906667 1140.54533,352.725833 1141.863,354.0435 C1143.18067,355.361167 1145.4915,356.354333 1148.7955,357.023 C1149.77883,357.219667 1150.57533,357.4065 1151.185,357.5835 C1151.79467,357.7605 1152.25683,357.957167 1152.5715,358.1735 C1152.88617,358.389833 1153.09267,358.625833 1153.191,358.8815 C1153.28933,359.137167 1153.3385,359.461667 1153.3385,359.855 C1153.3385,360.523667 1153.02383,361.074333 1152.3945,361.507 C1151.76517,361.939667 1150.95883,362.156 1149.9755,362.156 C1147.30083,362.156 1144.46883,361.133333 1141.4795,359.088 L1141.4795,359.088 L1137.5855,366.64 C1141.55817,368.960667 1145.58983,370.121 1149.6805,370.121 Z M614.3145,445.944 C616.6745,445.944 619.172167,445.373667 621.8075,444.233 L621.8075,444.233 L621.8075,435.147 C620.076833,436.523667 618.2085,437.212 616.2025,437.212 C615.179833,437.212 614.216167,437.035 613.3115,436.681 C612.406833,436.327 611.63,435.8255 610.981,435.1765 C610.332,434.5275 609.820667,433.7605 609.447,432.8755 C609.073333,431.9905 608.8865,431.017 608.8865,429.955 C608.8865,428.853667 609.073333,427.8605 609.447,426.9755 C609.820667,426.0905 610.341833,425.3235 611.0105,424.6745 C611.679167,424.0255 612.456,423.524 613.341,423.17 C614.226,422.816 615.179833,422.639 616.2025,422.639 C618.0905,422.639 619.958833,423.268333 621.8075,424.527 L621.8075,424.527 L621.8075,415.441 C619.604833,414.339667 617.2055,413.789 614.6095,413.789 C612.2495,413.789 610.037,414.192167 607.972,414.9985 C605.907,415.804833 604.127167,416.925833 602.6325,418.3615 C601.137833,419.797167 599.957833,421.508167 599.0925,423.4945 C598.227167,425.480833 597.7945,427.673667 597.7945,430.073 C597.7945,432.472333 598.246833,434.6455 599.1515,436.5925 C600.056167,438.5395 601.265667,440.211167 602.78,441.6075 C604.294333,443.003833 606.044667,444.075667 608.031,444.823 C610.017333,445.570333 612.111833,445.944 614.3145,445.944 Z M638.5635,445 L638.5635,428.834 C638.5635,426.828 639.045333,425.284167 640.009,424.2025 C640.972667,423.120833 642.359167,422.58 644.1685,422.58 C645.505833,422.58 646.6465,422.993 647.5905,423.819 C648.141167,424.330333 648.5345,425.058 648.7705,426.002 C649.0065,426.946 649.1245,428.185 649.1245,429.719 L649.1245,429.719 L649.1245,445 L659.8035,445 L659.8035,425.766 C659.8035,422.186667 658.83,419.344833 656.883,417.2405 C654.936,415.136167 652.054833,414.084 648.2395,414.084 C646.2335,414.084 644.483167,414.388833 642.9885,414.9985 C641.493833,415.608167 640.018833,416.798 638.5635,418.568 L638.5635,418.568 L638.5635,396.03 L627.8845,396.03 L627.8845,445 L638.5635,445 Z M681.1615,445.944 C685.0555,445.944 688.143167,444.508333 690.4245,441.637 L690.4245,441.637 L690.4245,445 L701.1625,445 L701.1625,414.733 L690.4245,414.733 L690.4245,417.742 C687.9465,415.106667 684.8195,413.789 681.0435,413.789 C678.8015,413.789 676.756167,414.211833 674.9075,415.0575 C673.058833,415.903167 671.465833,417.053667 670.1285,418.509 C668.791167,419.964333 667.748833,421.6655 667.0015,423.6125 C666.254167,425.5595 665.8805,427.614667 665.8805,429.778 C665.8805,432.098667 666.264,434.242333 667.031,436.209 C667.798,438.175667 668.869833,439.886667 670.2465,441.342 C671.623167,442.797333 673.235833,443.928167 675.0845,444.7345 C676.933167,445.540833 678.958833,445.944 681.1615,445.944 Z M683.8755,436.74 C682.892167,436.74 681.977667,436.563 681.132,436.209 C680.286333,435.855 679.558667,435.363333 678.949,434.734 C678.339333,434.104667 677.8575,433.367167 677.5035,432.5215 C677.1495,431.675833 676.9725,430.761333 676.9725,429.778 C676.9725,428.834 677.1495,427.958833 677.5035,427.1525 C677.8575,426.346167 678.339333,425.628333 678.949,424.999 C679.558667,424.369667 680.286333,423.878 681.132,423.524 C681.977667,423.17 682.892167,422.993 683.8755,422.993 C684.8195,422.993 685.714333,423.17 686.56,423.524 C687.405667,423.878 688.133333,424.369667 688.743,424.999 C689.352667,425.628333 689.844333,426.365833 690.218,427.2115 C690.591667,428.057167 690.7785,428.952 690.7785,429.896 C690.7785,430.84 690.591667,431.725 690.218,432.551 C689.844333,433.377 689.352667,434.104667 688.743,434.734 C688.133333,435.363333 687.405667,435.855 686.56,436.209 C685.714333,436.563 684.8195,436.74 683.8755,436.74 Z M719.0985,445 L719.0985,428.834 C719.0985,426.828 719.580333,425.284167 720.544,424.2025 C721.507667,423.120833 722.894167,422.58 724.7035,422.58 C725.372167,422.58 726.0015,422.678333 726.5915,422.875 C727.1815,423.071667 727.7125,423.406 728.1845,423.878 C728.735167,424.428667 729.118667,425.166167 729.335,426.0905 C729.551333,427.014833 729.6595,428.224333 729.6595,429.719 L729.6595,429.719 L729.6595,445 L740.3385,445 L740.3385,425.766 C740.3385,424.153333 740.181167,422.717667 739.8665,421.459 C739.551833,420.200333 738.961833,419.059667 738.0965,418.037 C737.0345,416.778333 735.746333,415.804833 734.232,415.1165 C732.717667,414.428167 730.8985,414.084 728.7745,414.084 C726.7685,414.084 725.018167,414.388833 723.5235,414.9985 C722.028833,415.608167 720.553833,416.798 719.0985,418.568 L719.0985,418.568 L719.0985,414.733 L708.4195,414.733 L708.4195,445 L719.0985,445 Z M763.8795,460.222 C765.964167,460.222 767.901333,459.986 769.691,459.514 C771.480667,459.042 773.0835,458.393 774.4995,457.567 C775.9155,456.741 777.125,455.7675 778.128,454.6465 C779.131,453.5255 779.8685,452.316 780.3405,451.018 C780.6945,449.995333 780.969833,448.815333 781.1665,447.478 C781.363167,446.140667 781.4615,444.626333 781.4615,442.935 L781.4615,442.935 L781.4615,414.733 L770.7825,414.733 L770.7825,417.919 C768.343833,415.244333 765.334833,413.907 761.7555,413.907 C759.552833,413.907 757.517333,414.329833 755.649,415.1755 C753.780667,416.021167 752.168,417.1815 750.811,418.6565 C749.454,420.1315 748.382167,421.862167 747.5955,423.8485 C746.808833,425.834833 746.4155,427.988333 746.4155,430.309 C746.4155,432.590333 746.779333,434.665167 747.507,436.5335 C748.234667,438.401833 749.257333,440.004667 750.575,441.342 C751.892667,442.679333 753.456167,443.721667 755.2655,444.469 C757.074833,445.216333 759.061167,445.59 761.2245,445.59 C762.207833,445.59 763.1125,445.521167 763.9385,445.3835 C764.7645,445.245833 765.551167,445.019667 766.2985,444.705 C767.045833,444.390333 767.783333,443.987167 768.511,443.4955 C769.238667,443.003833 769.995833,442.384333 770.7825,441.637 L770.7825,441.637 L770.7825,444.528 C770.7825,446.77 770.182667,448.520333 768.983,449.779 C767.783333,451.037667 766.0625,451.667 763.8205,451.667 C761.185167,451.667 759.493833,450.664 758.7465,448.658 L758.7465,448.658 L746.7105,448.658 C747.025167,450.31 747.6545,451.834167 748.5985,453.2305 C749.5425,454.626833 750.752,455.846167 752.227,456.8885 C753.702,457.930833 755.422833,458.747 757.3895,459.337 C759.356167,459.927 761.5195,460.222 763.8795,460.222 Z M764.4105,436.681 C763.427167,436.681 762.512667,436.504 761.667,436.15 C760.821333,435.796 760.093667,435.304333 759.484,434.675 C758.874333,434.045667 758.3925,433.308167 758.0385,432.4625 C757.6845,431.616833 757.5075,430.702333 757.5075,429.719 C757.5075,428.775 757.694333,427.89 758.068,427.064 C758.441667,426.238 758.943167,425.520167 759.5725,424.9105 C760.201833,424.300833 760.9295,423.809167 761.7555,423.4355 C762.5815,423.061833 763.4665,422.875 764.4105,422.875 C765.315167,422.875 766.190333,423.052 767.036,423.406 C767.881667,423.76 768.619167,424.251667 769.2485,424.881 C769.877833,425.510333 770.379333,426.238 770.753,427.064 C771.126667,427.89 771.3135,428.794667 771.3135,429.778 C771.3135,430.722 771.126667,431.616833 770.753,432.4625 C770.379333,433.308167 769.887667,434.045667 769.278,434.675 C768.668333,435.304333 767.940667,435.796 767.095,436.15 C766.249333,436.504 765.3545,436.681 764.4105,436.681 Z M794.0285,409.128 C794.8545,409.128 795.631333,408.970667 796.359,408.656 C797.086667,408.341333 797.725833,407.908667 798.2765,407.358 C798.827167,406.807333 799.259833,406.168167 799.5745,405.4405 C799.889167,404.712833 800.0465,403.936 800.0465,403.11 C800.0465,402.284 799.889167,401.507167 799.5745,400.7795 C799.259833,400.051833 798.827167,399.412667 798.2765,398.862 C797.725833,398.311333 797.086667,397.878667 796.359,397.564 C795.631333,397.249333 794.8545,397.092 794.0285,397.092 C793.2025,397.092 792.425667,397.249333 791.698,397.564 C790.970333,397.878667 790.331167,398.311333 789.7805,398.862 C789.229833,399.412667 788.797167,400.051833 788.4825,400.7795 C788.167833,401.507167 788.0105,402.284 788.0105,403.11 C788.0105,403.936 788.167833,404.712833 788.4825,405.4405 C788.797167,406.168167 789.229833,406.807333 789.7805,407.358 C790.331167,407.908667 790.970333,408.341333 791.698,408.656 C792.425667,408.970667 793.2025,409.128 794.0285,409.128 Z M799.3975,445 L799.3975,414.733 L788.7185,414.733 L788.7185,445 L799.3975,445 Z M817.3925,445 L817.3925,428.834 C817.3925,426.828 817.874333,425.284167 818.838,424.2025 C819.801667,423.120833 821.188167,422.58 822.9975,422.58 C823.666167,422.58 824.2955,422.678333 824.8855,422.875 C825.4755,423.071667 826.0065,423.406 826.4785,423.878 C827.029167,424.428667 827.412667,425.166167 827.629,426.0905 C827.845333,427.014833 827.9535,428.224333 827.9535,429.719 L827.9535,429.719 L827.9535,445 L838.6325,445 L838.6325,425.766 C838.6325,424.153333 838.475167,422.717667 838.1605,421.459 C837.845833,420.200333 837.255833,419.059667 836.3905,418.037 C835.3285,416.778333 834.040333,415.804833 832.526,415.1165 C831.011667,414.428167 829.1925,414.084 827.0685,414.084 C825.0625,414.084 823.312167,414.388833 821.8175,414.9985 C820.322833,415.608167 818.847833,416.798 817.3925,418.568 L817.3925,418.568 L817.3925,414.733 L806.7135,414.733 L806.7135,445 L817.3925,445 Z M862.1735,460.222 C864.258167,460.222 866.195333,459.986 867.985,459.514 C869.774667,459.042 871.3775,458.393 872.7935,457.567 C874.2095,456.741 875.419,455.7675 876.422,454.6465 C877.425,453.5255 878.1625,452.316 878.6345,451.018 C878.9885,449.995333 879.263833,448.815333 879.4605,447.478 C879.657167,446.140667 879.7555,444.626333 879.7555,442.935 L879.7555,442.935 L879.7555,414.733 L869.0765,414.733 L869.0765,417.919 C866.637833,415.244333 863.628833,413.907 860.0495,413.907 C857.846833,413.907 855.811333,414.329833 853.943,415.1755 C852.074667,416.021167 850.462,417.1815 849.105,418.6565 C847.748,420.1315 846.676167,421.862167 845.8895,423.8485 C845.102833,425.834833 844.7095,427.988333 844.7095,430.309 C844.7095,432.590333 845.073333,434.665167 845.801,436.5335 C846.528667,438.401833 847.551333,440.004667 848.869,441.342 C850.186667,442.679333 851.750167,443.721667 853.5595,444.469 C855.368833,445.216333 857.355167,445.59 859.5185,445.59 C860.501833,445.59 861.4065,445.521167 862.2325,445.3835 C863.0585,445.245833 863.845167,445.019667 864.5925,444.705 C865.339833,444.390333 866.077333,443.987167 866.805,443.4955 C867.532667,443.003833 868.289833,442.384333 869.0765,441.637 L869.0765,441.637 L869.0765,444.528 C869.0765,446.77 868.476667,448.520333 867.277,449.779 C866.077333,451.037667 864.3565,451.667 862.1145,451.667 C859.479167,451.667 857.787833,450.664 857.0405,448.658 L857.0405,448.658 L845.0045,448.658 C845.319167,450.31 845.9485,451.834167 846.8925,453.2305 C847.8365,454.626833 849.046,455.846167 850.521,456.8885 C851.996,457.930833 853.716833,458.747 855.6835,459.337 C857.650167,459.927 859.8135,460.222 862.1735,460.222 Z M862.7045,436.681 C861.721167,436.681 860.806667,436.504 859.961,436.15 C859.115333,435.796 858.387667,435.304333 857.778,434.675 C857.168333,434.045667 856.6865,433.308167 856.3325,432.4625 C855.9785,431.616833 855.8015,430.702333 855.8015,429.719 C855.8015,428.775 855.988333,427.89 856.362,427.064 C856.735667,426.238 857.237167,425.520167 857.8665,424.9105 C858.495833,424.300833 859.2235,423.809167 860.0495,423.4355 C860.8755,423.061833 861.7605,422.875 862.7045,422.875 C863.609167,422.875 864.484333,423.052 865.33,423.406 C866.175667,423.76 866.913167,424.251667 867.5425,424.881 C868.171833,425.510333 868.673333,426.238 869.047,427.064 C869.420667,427.89 869.6075,428.794667 869.6075,429.778 C869.6075,430.722 869.420667,431.616833 869.047,432.4625 C868.673333,433.308167 868.181667,434.045667 867.572,434.675 C866.962333,435.304333 866.234667,435.796 865.389,436.15 C864.543333,436.504 863.6485,436.681 862.7045,436.681 Z M893.3845,446.239 C894.3285,446.239 895.223333,446.062 896.069,445.708 C896.914667,445.354 897.652167,444.862333 898.2815,444.233 C898.910833,443.603667 899.4025,442.866167 899.7565,442.0205 C900.1105,441.174833 900.2875,440.28 900.2875,439.336 C900.2875,438.392 900.1105,437.497167 899.7565,436.6515 C899.4025,435.805833 898.910833,435.068333 898.2815,434.439 C897.652167,433.809667 896.914667,433.318 896.069,432.964 C895.223333,432.61 894.3285,432.433 893.3845,432.433 C892.4405,432.433 891.545667,432.61 890.7,432.964 C889.854333,433.318 889.116833,433.809667 888.4875,434.439 C887.858167,435.068333 887.3665,435.805833 887.0125,436.6515 C886.6585,437.497167 886.4815,438.392 886.4815,439.336 C886.4815,440.28 886.6585,441.174833 887.0125,442.0205 C887.3665,442.866167 887.858167,443.603667 888.4875,444.233 C889.116833,444.862333 889.854333,445.354 890.7,445.708 C891.545667,446.062 892.4405,446.239 893.3845,446.239 Z M941.7645,446.239 C944.4785,446.239 946.907333,445.875167 949.051,445.1475 C951.194667,444.419833 953.004,443.397167 954.479,442.0795 C955.954,440.761833 957.075,439.178667 957.842,437.33 C958.609,435.481333 958.9925,433.416333 958.9925,431.135 C958.9925,427.752333 958.117333,425.008833 956.367,422.9045 C954.616667,420.800167 951.8535,419.118667 948.0775,417.86 C947.1335,417.545333 946.179667,417.250333 945.216,416.975 C944.252333,416.699667 943.387,416.375167 942.62,416.0015 C941.853,415.627833 941.2335,415.185333 940.7615,414.674 C940.2895,414.162667 940.0535,413.513667 940.0535,412.727 C940.0535,411.586333 940.5255,410.662 941.4695,409.954 C942.4135,409.246 943.632833,408.892 945.1275,408.892 C946.3075,408.892 947.526833,409.137833 948.7855,409.6295 C950.044167,410.121167 951.302833,410.878333 952.5615,411.901 L952.5615,411.901 L957.1635,402.874 C954.960833,401.694 952.659833,400.799167 950.2605,400.1895 C947.861167,399.579833 945.560167,399.275 943.3575,399.275 C940.9975,399.275 938.863667,399.629 936.956,400.337 C935.048333,401.045 933.435667,402.038167 932.118,403.3165 C930.800333,404.594833 929.777667,406.128833 929.05,407.9185 C928.322333,409.708167 927.9585,411.704333 927.9585,413.907 C927.9585,416.109667 928.302667,417.928833 928.991,419.3645 C929.679333,420.800167 930.584,421.99 931.705,422.934 C932.826,423.878 934.104333,424.635167 935.54,425.2055 C936.975667,425.775833 938.440833,426.297 939.9355,426.769 C941.194167,427.201667 942.266,427.595 943.151,427.949 C944.036,428.303 944.753833,428.6865 945.3045,429.0995 C945.855167,429.5125 946.2485,429.964833 946.4845,430.4565 C946.7205,430.948167 946.8385,431.528333 946.8385,432.197 C946.8385,433.298333 946.376333,434.281667 945.452,435.147 C944.527667,436.012333 943.1215,436.445 941.2335,436.445 C939.5815,436.445 937.909833,436.071333 936.2185,435.324 C934.527167,434.576667 932.816167,433.436 931.0855,431.902 L931.0855,431.902 L926.1295,441.224 C930.928167,444.567333 936.139833,446.239 941.7645,446.239 Z M982.0615,446.121 C984.696833,446.121 987.145333,445.727667 989.407,444.941 C991.668667,444.154333 993.605833,443.043167 995.2185,441.6075 C996.831167,440.171833 998.099667,438.460833 999.024,436.4745 C999.948333,434.488167 1000.4105,432.295333 1000.4105,429.896 C1000.4105,427.496667 999.958167,425.303833 999.0535,423.3175 C998.148833,421.331167 996.880333,419.620167 995.248,418.1845 C993.615667,416.748833 991.688333,415.627833 989.466,414.8215 C987.243667,414.015167 984.8345,413.612 982.2385,413.612 C979.603167,413.612 977.174333,414.025 974.952,414.851 C972.729667,415.677 970.812167,416.807833 969.1995,418.2435 C967.586833,419.679167 966.328167,421.3705 965.4235,423.3175 C964.518833,425.2645 964.0665,427.359 964.0665,429.601 C964.0665,432.079 964.518833,434.330833 965.4235,436.3565 C966.328167,438.382167 967.577,440.122667 969.17,441.578 C970.763,443.033333 972.660833,444.154333 974.8635,444.941 C977.066167,445.727667 979.4655,446.121 982.0615,446.121 Z M982.2385,436.74 C981.2945,436.74 980.399667,436.563 979.554,436.209 C978.708333,435.855 977.980667,435.363333 977.371,434.734 C976.761333,434.104667 976.269667,433.367167 975.896,432.5215 C975.522333,431.675833 975.3355,430.741667 975.3355,429.719 C975.3355,428.775 975.522333,427.89 975.896,427.064 C976.269667,426.238 976.761333,425.510333 977.371,424.881 C977.980667,424.251667 978.708333,423.76 979.554,423.406 C980.399667,423.052 981.2945,422.875 982.2385,422.875 C983.1825,422.875 984.077333,423.052 984.923,423.406 C985.768667,423.76 986.496333,424.251667 987.106,424.881 C987.715667,425.510333 988.207333,426.247833 988.581,427.0935 C988.954667,427.939167 989.1415,428.834 989.1415,429.778 C989.1415,430.761333 988.954667,431.675833 988.581,432.5215 C988.207333,433.367167 987.715667,434.104667 987.106,434.734 C986.496333,435.363333 985.768667,435.855 984.923,436.209 C984.077333,436.563 983.1825,436.74 982.2385,436.74 Z M1040.7075,445.944 C1044.6015,445.944 1047.68917,444.508333 1049.9705,441.637 L1049.9705,441.637 L1049.9705,445 L1060.7085,445 L1060.7085,414.733 L1049.9705,414.733 L1049.9705,417.742 C1047.4925,415.106667 1044.3655,413.789 1040.5895,413.789 C1038.3475,413.789 1036.30217,414.211833 1034.4535,415.0575 C1032.60483,415.903167 1031.01183,417.053667 1029.6745,418.509 C1028.33717,419.964333 1027.29483,421.6655 1026.5475,423.6125 C1025.80017,425.5595 1025.4265,427.614667 1025.4265,429.778 C1025.4265,432.098667 1025.81,434.242333 1026.577,436.209 C1027.344,438.175667 1028.41583,439.886667 1029.7925,441.342 C1031.16917,442.797333 1032.78183,443.928167 1034.6305,444.7345 C1036.47917,445.540833 1038.50483,445.944 1040.7075,445.944 Z M1043.4215,436.74 C1042.43817,436.74 1041.52367,436.563 1040.678,436.209 C1039.83233,435.855 1039.10467,435.363333 1038.495,434.734 C1037.88533,434.104667 1037.4035,433.367167 1037.0495,432.5215 C1036.6955,431.675833 1036.5185,430.761333 1036.5185,429.778 C1036.5185,428.834 1036.6955,427.958833 1037.0495,427.1525 C1037.4035,426.346167 1037.88533,425.628333 1038.495,424.999 C1039.10467,424.369667 1039.83233,423.878 1040.678,423.524 C1041.52367,423.17 1042.43817,422.993 1043.4215,422.993 C1044.3655,422.993 1045.26033,423.17 1046.106,423.524 C1046.95167,423.878 1047.67933,424.369667 1048.289,424.999 C1048.89867,425.628333 1049.39033,426.365833 1049.764,427.2115 C1050.13767,428.057167 1050.3245,428.952 1050.3245,429.896 C1050.3245,430.84 1050.13767,431.725 1049.764,432.551 C1049.39033,433.377 1048.89867,434.104667 1048.289,434.734 C1047.67933,435.363333 1046.95167,435.855 1046.106,436.209 C1045.26033,436.563 1044.3655,436.74 1043.4215,436.74 Z M1078.6445,445 L1078.6445,432.02 C1078.6445,429.188 1079.264,427.0345 1080.503,425.5595 C1081.742,424.0845 1083.6005,423.347 1086.0785,423.347 C1087.7305,423.347 1089.2645,423.701 1090.6805,424.409 L1090.6805,424.409 L1090.6805,414.202 C1090.24783,414.123333 1089.86433,414.084 1089.53,414.084 L1089.53,414.084 L1088.6155,414.084 C1086.41283,414.084 1084.4855,414.565833 1082.8335,415.5295 C1081.1815,416.493167 1079.78517,417.879667 1078.6445,419.689 L1078.6445,419.689 L1078.6445,414.733 L1067.9655,414.733 L1067.9655,445 L1078.6445,445 Z M1111.4485,446.121 C1119.78717,446.121 1124.99883,442.659667 1127.0835,435.737 L1127.0835,435.737 L1116.7585,435.737 C1115.5785,437.625 1113.82817,438.569 1111.5075,438.569 C1107.18083,438.569 1105.0175,436.268 1105.0175,431.666 L1105.0175,431.666 L1127.4965,431.666 L1127.4965,430.545 C1127.4965,427.909667 1127.12283,425.539833 1126.3755,423.4355 C1125.62817,421.331167 1124.5465,419.551333 1123.1305,418.096 C1121.7145,416.640667 1119.98383,415.5295 1117.9385,414.7625 C1115.89317,413.9955 1113.59217,413.612 1111.0355,413.612 C1108.4395,413.612 1106.109,413.9955 1104.044,414.7625 C1101.979,415.5295 1100.21883,416.621 1098.7635,418.037 C1097.30817,419.453 1096.18717,421.173833 1095.4005,423.1995 C1094.61383,425.225167 1094.2205,427.496667 1094.2205,430.014 C1094.2205,432.452667 1094.6335,434.655333 1095.4595,436.622 C1096.2855,438.588667 1097.45567,440.28 1098.97,441.696 C1100.48433,443.112 1102.3035,444.2035 1104.4275,444.9705 C1106.5515,445.7375 1108.89183,446.121 1111.4485,446.121 Z M1117.5255,425.471 L1105.3125,425.471 C1105.58783,423.897667 1106.24667,422.678333 1107.289,421.813 C1108.33133,420.947667 1109.6785,420.515 1111.3305,420.515 C1112.90383,420.515 1114.24117,420.967333 1115.3425,421.872 C1116.44383,422.776667 1117.1715,423.976333 1117.5255,425.471 L1117.5255,425.471 Z M1172.7495,445 L1179.9475,428.421 L1187.4995,445 L1194.6385,445 L1210.4505,414.733 L1198.5915,414.733 L1190.9805,431.135 L1183.4285,414.733 L1176.7025,414.733 L1169.1505,430.663 L1161.8935,414.733 L1149.9755,414.733 L1165.4925,445 L1172.7495,445 Z M1230.1565,446.121 C1238.49517,446.121 1243.70683,442.659667 1245.7915,435.737 L1245.7915,435.737 L1235.4665,435.737 C1234.2865,437.625 1232.53617,438.569 1230.2155,438.569 C1225.88883,438.569 1223.7255,436.268 1223.7255,431.666 L1223.7255,431.666 L1246.2045,431.666 L1246.2045,430.545 C1246.2045,427.909667 1245.83083,425.539833 1245.0835,423.4355 C1244.33617,421.331167 1243.2545,419.551333 1241.8385,418.096 C1240.4225,416.640667 1238.69183,415.5295 1236.6465,414.7625 C1234.60117,413.9955 1232.30017,413.612 1229.7435,413.612 C1227.1475,413.612 1224.817,413.9955 1222.752,414.7625 C1220.687,415.5295 1218.92683,416.621 1217.4715,418.037 C1216.01617,419.453 1214.89517,421.173833 1214.1085,423.1995 C1213.32183,425.225167 1212.9285,427.496667 1212.9285,430.014 C1212.9285,432.452667 1213.3415,434.655333 1214.1675,436.622 C1214.9935,438.588667 1216.16367,440.28 1217.678,441.696 C1219.19233,443.112 1221.0115,444.2035 1223.1355,444.9705 C1225.2595,445.7375 1227.59983,446.121 1230.1565,446.121 Z M1236.2335,425.471 L1224.0205,425.471 C1224.29583,423.897667 1224.95467,422.678333 1225.997,421.813 C1227.03933,420.947667 1228.3865,420.515 1230.0385,420.515 C1231.61183,420.515 1232.94917,420.967333 1234.0505,421.872 C1235.15183,422.776667 1235.8795,423.976333 1236.2335,425.471 L1236.2335,425.471 Z M1258.6535,446.239 C1259.5975,446.239 1260.49233,446.062 1261.338,445.708 C1262.18367,445.354 1262.92117,444.862333 1263.5505,444.233 C1264.17983,443.603667 1264.6715,442.866167 1265.0255,442.0205 C1265.3795,441.174833 1265.5565,440.28 1265.5565,439.336 C1265.5565,438.392 1265.3795,437.497167 1265.0255,436.6515 C1264.6715,435.805833 1264.17983,435.068333 1263.5505,434.439 C1262.92117,433.809667 1262.18367,433.318 1261.338,432.964 C1260.49233,432.61 1259.5975,432.433 1258.6535,432.433 C1257.7095,432.433 1256.81467,432.61 1255.969,432.964 C1255.12333,433.318 1254.38583,433.809667 1253.7565,434.439 C1253.12717,435.068333 1252.6355,435.805833 1252.2815,436.6515 C1251.9275,437.497167 1251.7505,438.392 1251.7505,439.336 C1251.7505,440.28 1251.9275,441.174833 1252.2815,442.0205 C1252.6355,442.866167 1253.12717,443.603667 1253.7565,444.233 C1254.38583,444.862333 1255.12333,445.354 1255.969,445.708 C1256.81467,446.062 1257.7095,446.239 1258.6535,446.239 Z" id="Ourindustryischanging.Soarewe."></path>
        </g>
    </g>
</svg>