<?xml version="1.0" encoding="UTF-8"?>
<svg width="669px" height="141px" viewBox="0 0 669 141" version="1.1" xmlns="http://www.w3.org/2000/svg" xmlns:xlink="http://www.w3.org/1999/xlink">
    <!-- Generator: Sketch 62 (91390) - https://sketch.com -->
    <title>Ourindustryischanging.Soarewe.</title>
    <desc>Created with Sketch.</desc>
    <g id="Page-1" stroke="none" stroke-width="1" fill="none" fill-rule="evenodd">
        <g id="top-banner-copy-9" transform="translate(-594.000000, -320.000000)" fill="#FFFFFF" fill-rule="nonzero">
            <path d="M619.258,370.239 C622.837333,370.239 626.141333,369.639167 629.17,368.4395 C632.198667,367.239833 634.8045,365.578 636.9875,363.454 C639.1705,361.33 640.871667,358.842167 642.091,355.9905 C643.310333,353.138833 643.92,350.061 643.92,346.757 C643.92,343.453 643.310333,340.375167 642.091,337.5235 C640.871667,334.671833 639.1705,332.184 636.9875,330.06 C634.8045,327.936 632.198667,326.274167 629.17,325.0745 C626.141333,323.874833 622.837333,323.275 619.258,323.275 C615.639333,323.275 612.3255,323.874833 609.3165,325.0745 C606.3075,326.274167 603.721333,327.936 601.558,330.06 C599.394667,332.184 597.703333,334.671833 596.484,337.5235 C595.264667,340.375167 594.655,343.453 594.655,346.757 C594.655,350.061 595.264667,353.138833 596.484,355.9905 C597.703333,358.842167 599.394667,361.33 601.558,363.454 C603.721333,365.578 606.3075,367.239833 609.3165,368.4395 C612.3255,369.639167 615.639333,370.239 619.258,370.239 Z M619.258,359.029 C617.566667,359.029 615.963833,358.724167 614.4495,358.1145 C612.935167,357.504833 611.607667,356.649333 610.467,355.548 C609.326333,354.446667 608.421667,353.148667 607.753,351.654 C607.084333,350.159333 606.75,348.527 606.75,346.757 C606.75,344.987 607.084333,343.354667 607.753,341.86 C608.421667,340.365333 609.326333,339.067333 610.467,337.966 C611.607667,336.864667 612.935167,336.009167 614.4495,335.3995 C615.963833,334.789833 617.566667,334.485 619.258,334.485 C620.949333,334.485 622.552167,334.789833 624.0665,335.3995 C625.580833,336.009167 626.918167,336.864667 628.0785,337.966 C629.238833,339.067333 630.153333,340.365333 630.822,341.86 C631.490667,343.354667 631.825,344.987 631.825,346.757 C631.825,348.527 631.490667,350.159333 630.822,351.654 C630.153333,353.148667 629.238833,354.446667 628.0785,355.548 C626.918167,356.649333 625.580833,357.504833 624.0665,358.1145 C622.552167,358.724167 620.949333,359.029 619.258,359.029 Z M666.34,370.121 C671.689333,370.121 675.711167,369.098333 678.4055,367.053 C681.099833,365.007667 682.447,361.939667 682.447,357.849 L682.447,357.849 L682.447,338.733 L671.768,338.733 L671.768,355.784 C671.768,359.520667 669.958667,361.389 666.34,361.389 C662.721333,361.389 660.912,359.520667 660.912,355.784 L660.912,355.784 L660.912,338.733 L650.233,338.733 L650.233,357.849 C650.233,361.939667 651.580167,365.007667 654.2745,367.053 C656.968833,369.098333 660.990667,370.121 666.34,370.121 Z M700.383,369 L700.383,356.02 C700.383,353.188 701.0025,351.0345 702.2415,349.5595 C703.4805,348.0845 705.339,347.347 707.817,347.347 C709.469,347.347 711.003,347.701 712.419,348.409 L712.419,348.409 L712.419,338.202 C711.986333,338.123333 711.602833,338.084 711.2685,338.084 L711.2685,338.084 L710.354,338.084 C708.151333,338.084 706.224,338.565833 704.572,339.5295 C702.92,340.493167 701.523667,341.879667 700.383,343.689 L700.383,343.689 L700.383,338.733 L689.704,338.733 L689.704,369 L700.383,369 Z M742.509,333.128 C743.335,333.128 744.111833,332.970667 744.8395,332.656 C745.567167,332.341333 746.206333,331.908667 746.757,331.358 C747.307667,330.807333 747.740333,330.168167 748.055,329.4405 C748.369667,328.712833 748.527,327.936 748.527,327.11 C748.527,326.284 748.369667,325.507167 748.055,324.7795 C747.740333,324.051833 747.307667,323.412667 746.757,322.862 C746.206333,322.311333 745.567167,321.878667 744.8395,321.564 C744.111833,321.249333 743.335,321.092 742.509,321.092 C741.683,321.092 740.906167,321.249333 740.1785,321.564 C739.450833,321.878667 738.811667,322.311333 738.261,322.862 C737.710333,323.412667 737.277667,324.051833 736.963,324.7795 C736.648333,325.507167 736.491,326.284 736.491,327.11 C736.491,327.936 736.648333,328.712833 736.963,329.4405 C737.277667,330.168167 737.710333,330.807333 738.261,331.358 C738.811667,331.908667 739.450833,332.341333 740.1785,332.656 C740.906167,332.970667 741.683,333.128 742.509,333.128 Z M747.878,369 L747.878,338.733 L737.199,338.733 L737.199,369 L747.878,369 Z M765.873,369 L765.873,352.834 C765.873,350.828 766.354833,349.284167 767.3185,348.2025 C768.282167,347.120833 769.668667,346.58 771.478,346.58 C772.146667,346.58 772.776,346.678333 773.366,346.875 C773.956,347.071667 774.487,347.406 774.959,347.878 C775.509667,348.428667 775.893167,349.166167 776.1095,350.0905 C776.325833,351.014833 776.434,352.224333 776.434,353.719 L776.434,353.719 L776.434,369 L787.113,369 L787.113,349.766 C787.113,348.153333 786.955667,346.717667 786.641,345.459 C786.326333,344.200333 785.736333,343.059667 784.871,342.037 C783.809,340.778333 782.520833,339.804833 781.0065,339.1165 C779.492167,338.428167 777.673,338.084 775.549,338.084 C773.543,338.084 771.792667,338.388833 770.298,338.9985 C768.803333,339.608167 767.328333,340.798 765.873,342.568 L765.873,342.568 L765.873,338.733 L755.194,338.733 L755.194,369 L765.873,369 Z M808.471,369.944 C812.365,369.944 815.452667,368.508333 817.734,365.637 L817.734,365.637 L817.734,369 L828.472,369 L828.472,320.03 L817.734,320.03 L817.734,341.742 C815.256,339.106667 812.129,337.789 808.353,337.789 C806.111,337.789 804.055833,338.211833 802.1875,339.0575 C800.319167,339.903167 798.716333,341.053667 797.379,342.509 C796.041667,343.964333 795.009167,345.6655 794.2815,347.6125 C793.553833,349.5595 793.19,351.614667 793.19,353.778 C793.19,356.059333 793.5735,358.183333 794.3405,360.15 C795.1075,362.116667 796.179333,363.827667 797.556,365.283 C798.932667,366.738333 800.545333,367.879 802.394,368.705 C804.242667,369.531 806.268333,369.944 808.471,369.944 Z M811.185,360.74 C810.201667,360.74 809.287167,360.563 808.4415,360.209 C807.595833,359.855 806.868167,359.363333 806.2585,358.734 C805.648833,358.104667 805.167,357.367167 804.813,356.5215 C804.459,355.675833 804.282,354.761333 804.282,353.778 C804.282,352.834 804.468833,351.958833 804.8425,351.1525 C805.216167,350.346167 805.707833,349.628333 806.3175,348.999 C806.927167,348.369667 807.654833,347.878 808.5005,347.524 C809.346167,347.17 810.241,346.993 811.185,346.993 C812.129,346.993 813.023833,347.17 813.8695,347.524 C814.715167,347.878 815.442833,348.369667 816.0525,348.999 C816.662167,349.628333 817.153833,350.365833 817.5275,351.2115 C817.901167,352.057167 818.088,352.952 818.088,353.896 C818.088,354.84 817.901167,355.725 817.5275,356.551 C817.153833,357.377 816.662167,358.104667 816.0525,358.734 C815.442833,359.363333 814.715167,359.855 813.8695,360.209 C813.023833,360.563 812.129,360.74 811.185,360.74 Z M851.836,370.121 C857.185333,370.121 861.207167,369.098333 863.9015,367.053 C866.595833,365.007667 867.943,361.939667 867.943,357.849 L867.943,357.849 L867.943,338.733 L857.264,338.733 L857.264,355.784 C857.264,359.520667 855.454667,361.389 851.836,361.389 C848.217333,361.389 846.408,359.520667 846.408,355.784 L846.408,355.784 L846.408,338.733 L835.729,338.733 L835.729,357.849 C835.729,361.939667 837.076167,365.007667 839.7705,367.053 C842.464833,369.098333 846.486667,370.121 851.836,370.121 Z M885.407,370.121 C887.531,370.121 889.478,369.8555 891.248,369.3245 C893.018,368.7935 894.532333,368.046167 895.791,367.0825 C897.049667,366.118833 898.033,364.929 898.741,363.513 C899.449,362.097 899.803,360.504 899.803,358.734 C899.803,356.374 899.075333,354.436833 897.62,352.9225 C896.164667,351.408167 893.962,350.356 891.012,349.766 C889.95,349.53 889.0945,349.333333 888.4455,349.176 C887.7965,349.018667 887.304833,348.841667 886.9705,348.645 C886.636167,348.448333 886.419833,348.241833 886.3215,348.0255 C886.223167,347.809167 886.174,347.524 886.174,347.17 C886.174,346.501333 886.478833,345.970333 887.0885,345.577 C887.698167,345.183667 888.494667,344.987 889.478,344.987 C891.366,344.987 893.293333,345.498333 895.26,346.521 L895.26,346.521 L898.859,339.559 C895.712333,338.261 892.467333,337.612 889.124,337.612 C887.078667,337.612 885.220167,337.867667 883.5485,338.379 C881.876833,338.890333 880.451,339.618 879.271,340.562 C878.091,341.506 877.186333,342.6565 876.557,344.0135 C875.927667,345.3705 875.613,346.894667 875.613,348.586 C875.613,350.906667 876.271833,352.725833 877.5895,354.0435 C878.907167,355.361167 881.218,356.354333 884.522,357.023 C885.505333,357.219667 886.301833,357.4065 886.9115,357.5835 C887.521167,357.7605 887.983333,357.957167 888.298,358.1735 C888.612667,358.389833 888.819167,358.625833 888.9175,358.8815 C889.015833,359.137167 889.065,359.461667 889.065,359.855 C889.065,360.523667 888.750333,361.074333 888.121,361.507 C887.491667,361.939667 886.685333,362.156 885.702,362.156 C883.027333,362.156 880.195333,361.133333 877.206,359.088 L877.206,359.088 L873.312,366.64 C877.284667,368.960667 881.316333,370.121 885.407,370.121 Z M917.149,369 L917.149,347.642 L923.226,347.642 L923.226,338.733 L917.149,338.733 L917.149,329.647 L906.47,329.647 L906.47,338.733 L902.93,338.733 L902.93,347.642 L906.47,347.642 L906.47,369 L917.149,369 Z M937.917,369 L937.917,356.02 C937.917,353.188 938.5365,351.0345 939.7755,349.5595 C941.0145,348.0845 942.873,347.347 945.351,347.347 C947.003,347.347 948.537,347.701 949.953,348.409 L949.953,348.409 L949.953,338.202 C949.520333,338.123333 949.136833,338.084 948.8025,338.084 L948.8025,338.084 L947.888,338.084 C945.685333,338.084 943.758,338.565833 942.106,339.5295 C940.454,340.493167 939.057667,341.879667 937.917,343.689 L937.917,343.689 L937.917,338.733 L927.238,338.733 L927.238,369 L937.917,369 Z M967.299,384.104 L991.607,338.733 L979.335,338.733 L971.488,354.25 L963.405,338.733 L951.015,338.733 L965.647,364.87 L955.322,384.104 L967.299,384.104 Z M1020.635,333.128 C1021.461,333.128 1022.23783,332.970667 1022.9655,332.656 C1023.69317,332.341333 1024.33233,331.908667 1024.883,331.358 C1025.43367,330.807333 1025.86633,330.168167 1026.181,329.4405 C1026.49567,328.712833 1026.653,327.936 1026.653,327.11 C1026.653,326.284 1026.49567,325.507167 1026.181,324.7795 C1025.86633,324.051833 1025.43367,323.412667 1024.883,322.862 C1024.33233,322.311333 1023.69317,321.878667 1022.9655,321.564 C1022.23783,321.249333 1021.461,321.092 1020.635,321.092 C1019.809,321.092 1019.03217,321.249333 1018.3045,321.564 C1017.57683,321.878667 1016.93767,322.311333 1016.387,322.862 C1015.83633,323.412667 1015.40367,324.051833 1015.089,324.7795 C1014.77433,325.507167 1014.617,326.284 1014.617,327.11 C1014.617,327.936 1014.77433,328.712833 1015.089,329.4405 C1015.40367,330.168167 1015.83633,330.807333 1016.387,331.358 C1016.93767,331.908667 1017.57683,332.341333 1018.3045,332.656 C1019.03217,332.970667 1019.809,333.128 1020.635,333.128 Z M1026.004,369 L1026.004,338.733 L1015.325,338.733 L1015.325,369 L1026.004,369 Z M1043.527,370.121 C1045.651,370.121 1047.598,369.8555 1049.368,369.3245 C1051.138,368.7935 1052.65233,368.046167 1053.911,367.0825 C1055.16967,366.118833 1056.153,364.929 1056.861,363.513 C1057.569,362.097 1057.923,360.504 1057.923,358.734 C1057.923,356.374 1057.19533,354.436833 1055.74,352.9225 C1054.28467,351.408167 1052.082,350.356 1049.132,349.766 C1048.07,349.53 1047.2145,349.333333 1046.5655,349.176 C1045.9165,349.018667 1045.42483,348.841667 1045.0905,348.645 C1044.75617,348.448333 1044.53983,348.241833 1044.4415,348.0255 C1044.34317,347.809167 1044.294,347.524 1044.294,347.17 C1044.294,346.501333 1044.59883,345.970333 1045.2085,345.577 C1045.81817,345.183667 1046.61467,344.987 1047.598,344.987 C1049.486,344.987 1051.41333,345.498333 1053.38,346.521 L1053.38,346.521 L1056.979,339.559 C1053.83233,338.261 1050.58733,337.612 1047.244,337.612 C1045.19867,337.612 1043.34017,337.867667 1041.6685,338.379 C1039.99683,338.890333 1038.571,339.618 1037.391,340.562 C1036.211,341.506 1035.30633,342.6565 1034.677,344.0135 C1034.04767,345.3705 1033.733,346.894667 1033.733,348.586 C1033.733,350.906667 1034.39183,352.725833 1035.7095,354.0435 C1037.02717,355.361167 1039.338,356.354333 1042.642,357.023 C1043.62533,357.219667 1044.42183,357.4065 1045.0315,357.5835 C1045.64117,357.7605 1046.10333,357.957167 1046.418,358.1735 C1046.73267,358.389833 1046.93917,358.625833 1047.0375,358.8815 C1047.13583,359.137167 1047.185,359.461667 1047.185,359.855 C1047.185,360.523667 1046.87033,361.074333 1046.241,361.507 C1045.61167,361.939667 1044.80533,362.156 1043.822,362.156 C1041.14733,362.156 1038.31533,361.133333 1035.326,359.088 L1035.326,359.088 L1031.432,366.64 C1035.40467,368.960667 1039.43633,370.121 1043.527,370.121 Z M610.998,445.944 C613.358,445.944 615.855667,445.373667 618.491,444.233 L618.491,444.233 L618.491,435.147 C616.760333,436.523667 614.892,437.212 612.886,437.212 C611.863333,437.212 610.899667,437.035 609.995,436.681 C609.090333,436.327 608.3135,435.8255 607.6645,435.1765 C607.0155,434.5275 606.504167,433.7605 606.1305,432.8755 C605.756833,431.9905 605.57,431.017 605.57,429.955 C605.57,428.853667 605.756833,427.8605 606.1305,426.9755 C606.504167,426.0905 607.025333,425.3235 607.694,424.6745 C608.362667,424.0255 609.1395,423.524 610.0245,423.17 C610.9095,422.816 611.863333,422.639 612.886,422.639 C614.774,422.639 616.642333,423.268333 618.491,424.527 L618.491,424.527 L618.491,415.441 C616.288333,414.339667 613.889,413.789 611.293,413.789 C608.933,413.789 606.7205,414.192167 604.6555,414.9985 C602.5905,415.804833 600.810667,416.925833 599.316,418.3615 C597.821333,419.797167 596.641333,421.508167 595.776,423.4945 C594.910667,425.480833 594.478,427.673667 594.478,430.073 C594.478,432.472333 594.930333,434.6455 595.835,436.5925 C596.739667,438.5395 597.949167,440.211167 599.4635,441.6075 C600.977833,443.003833 602.728167,444.075667 604.7145,444.823 C606.700833,445.570333 608.795333,445.944 610.998,445.944 Z M635.247,445 L635.247,428.834 C635.247,426.828 635.728833,425.284167 636.6925,424.2025 C637.656167,423.120833 639.042667,422.58 640.852,422.58 C642.189333,422.58 643.33,422.993 644.274,423.819 C644.824667,424.330333 645.218,425.058 645.454,426.002 C645.69,426.946 645.808,428.185 645.808,429.719 L645.808,429.719 L645.808,445 L656.487,445 L656.487,425.766 C656.487,422.186667 655.5135,419.344833 653.5665,417.2405 C651.6195,415.136167 648.738333,414.084 644.923,414.084 C642.917,414.084 641.166667,414.388833 639.672,414.9985 C638.177333,415.608167 636.702333,416.798 635.247,418.568 L635.247,418.568 L635.247,396.03 L624.568,396.03 L624.568,445 L635.247,445 Z M677.845,445.944 C681.739,445.944 684.826667,444.508333 687.108,441.637 L687.108,441.637 L687.108,445 L697.846,445 L697.846,414.733 L687.108,414.733 L687.108,417.742 C684.63,415.106667 681.503,413.789 677.727,413.789 C675.485,413.789 673.439667,414.211833 671.591,415.0575 C669.742333,415.903167 668.149333,417.053667 666.812,418.509 C665.474667,419.964333 664.432333,421.6655 663.685,423.6125 C662.937667,425.5595 662.564,427.614667 662.564,429.778 C662.564,432.098667 662.9475,434.242333 663.7145,436.209 C664.4815,438.175667 665.553333,439.886667 666.93,441.342 C668.306667,442.797333 669.919333,443.928167 671.768,444.7345 C673.616667,445.540833 675.642333,445.944 677.845,445.944 Z M680.559,436.74 C679.575667,436.74 678.661167,436.563 677.8155,436.209 C676.969833,435.855 676.242167,435.363333 675.6325,434.734 C675.022833,434.104667 674.541,433.367167 674.187,432.5215 C673.833,431.675833 673.656,430.761333 673.656,429.778 C673.656,428.834 673.833,427.958833 674.187,427.1525 C674.541,426.346167 675.022833,425.628333 675.6325,424.999 C676.242167,424.369667 676.969833,423.878 677.8155,423.524 C678.661167,423.17 679.575667,422.993 680.559,422.993 C681.503,422.993 682.397833,423.17 683.2435,423.524 C684.089167,423.878 684.816833,424.369667 685.4265,424.999 C686.036167,425.628333 686.527833,426.365833 686.9015,427.2115 C687.275167,428.057167 687.462,428.952 687.462,429.896 C687.462,430.84 687.275167,431.725 686.9015,432.551 C686.527833,433.377 686.036167,434.104667 685.4265,434.734 C684.816833,435.363333 684.089167,435.855 683.2435,436.209 C682.397833,436.563 681.503,436.74 680.559,436.74 Z M715.782,445 L715.782,428.834 C715.782,426.828 716.263833,425.284167 717.2275,424.2025 C718.191167,423.120833 719.577667,422.58 721.387,422.58 C722.055667,422.58 722.685,422.678333 723.275,422.875 C723.865,423.071667 724.396,423.406 724.868,423.878 C725.418667,424.428667 725.802167,425.166167 726.0185,426.0905 C726.234833,427.014833 726.343,428.224333 726.343,429.719 L726.343,429.719 L726.343,445 L737.022,445 L737.022,425.766 C737.022,424.153333 736.864667,422.717667 736.55,421.459 C736.235333,420.200333 735.645333,419.059667 734.78,418.037 C733.718,416.778333 732.429833,415.804833 730.9155,415.1165 C729.401167,414.428167 727.582,414.084 725.458,414.084 C723.452,414.084 721.701667,414.388833 720.207,414.9985 C718.712333,415.608167 717.237333,416.798 715.782,418.568 L715.782,418.568 L715.782,414.733 L705.103,414.733 L705.103,445 L715.782,445 Z M760.563,460.222 C762.647667,460.222 764.584833,459.986 766.3745,459.514 C768.164167,459.042 769.767,458.393 771.183,457.567 C772.599,456.741 773.8085,455.7675 774.8115,454.6465 C775.8145,453.5255 776.552,452.316 777.024,451.018 C777.378,449.995333 777.653333,448.815333 777.85,447.478 C778.046667,446.140667 778.145,444.626333 778.145,442.935 L778.145,442.935 L778.145,414.733 L767.466,414.733 L767.466,417.919 C765.027333,415.244333 762.018333,413.907 758.439,413.907 C756.236333,413.907 754.200833,414.329833 752.3325,415.1755 C750.464167,416.021167 748.8515,417.1815 747.4945,418.6565 C746.1375,420.1315 745.065667,421.862167 744.279,423.8485 C743.492333,425.834833 743.099,427.988333 743.099,430.309 C743.099,432.590333 743.462833,434.665167 744.1905,436.5335 C744.918167,438.401833 745.940833,440.004667 747.2585,441.342 C748.576167,442.679333 750.139667,443.721667 751.949,444.469 C753.758333,445.216333 755.744667,445.59 757.908,445.59 C758.891333,445.59 759.796,445.521167 760.622,445.3835 C761.448,445.245833 762.234667,445.019667 762.982,444.705 C763.729333,444.390333 764.466833,443.987167 765.1945,443.4955 C765.922167,443.003833 766.679333,442.384333 767.466,441.637 L767.466,441.637 L767.466,444.528 C767.466,446.77 766.866167,448.520333 765.6665,449.779 C764.466833,451.037667 762.746,451.667 760.504,451.667 C757.868667,451.667 756.177333,450.664 755.43,448.658 L755.43,448.658 L743.394,448.658 C743.708667,450.31 744.338,451.834167 745.282,453.2305 C746.226,454.626833 747.4355,455.846167 748.9105,456.8885 C750.3855,457.930833 752.106333,458.747 754.073,459.337 C756.039667,459.927 758.203,460.222 760.563,460.222 Z M761.094,436.681 C760.110667,436.681 759.196167,436.504 758.3505,436.15 C757.504833,435.796 756.777167,435.304333 756.1675,434.675 C755.557833,434.045667 755.076,433.308167 754.722,432.4625 C754.368,431.616833 754.191,430.702333 754.191,429.719 C754.191,428.775 754.377833,427.89 754.7515,427.064 C755.125167,426.238 755.626667,425.520167 756.256,424.9105 C756.885333,424.300833 757.613,423.809167 758.439,423.4355 C759.265,423.061833 760.15,422.875 761.094,422.875 C761.998667,422.875 762.873833,423.052 763.7195,423.406 C764.565167,423.76 765.302667,424.251667 765.932,424.881 C766.561333,425.510333 767.062833,426.238 767.4365,427.064 C767.810167,427.89 767.997,428.794667 767.997,429.778 C767.997,430.722 767.810167,431.616833 767.4365,432.4625 C767.062833,433.308167 766.571167,434.045667 765.9615,434.675 C765.351833,435.304333 764.624167,435.796 763.7785,436.15 C762.932833,436.504 762.038,436.681 761.094,436.681 Z M790.712,409.128 C791.538,409.128 792.314833,408.970667 793.0425,408.656 C793.770167,408.341333 794.409333,407.908667 794.96,407.358 C795.510667,406.807333 795.943333,406.168167 796.258,405.4405 C796.572667,404.712833 796.73,403.936 796.73,403.11 C796.73,402.284 796.572667,401.507167 796.258,400.7795 C795.943333,400.051833 795.510667,399.412667 794.96,398.862 C794.409333,398.311333 793.770167,397.878667 793.0425,397.564 C792.314833,397.249333 791.538,397.092 790.712,397.092 C789.886,397.092 789.109167,397.249333 788.3815,397.564 C787.653833,397.878667 787.014667,398.311333 786.464,398.862 C785.913333,399.412667 785.480667,400.051833 785.166,400.7795 C784.851333,401.507167 784.694,402.284 784.694,403.11 C784.694,403.936 784.851333,404.712833 785.166,405.4405 C785.480667,406.168167 785.913333,406.807333 786.464,407.358 C787.014667,407.908667 787.653833,408.341333 788.3815,408.656 C789.109167,408.970667 789.886,409.128 790.712,409.128 Z M796.081,445 L796.081,414.733 L785.402,414.733 L785.402,445 L796.081,445 Z M814.076,445 L814.076,428.834 C814.076,426.828 814.557833,425.284167 815.5215,424.2025 C816.485167,423.120833 817.871667,422.58 819.681,422.58 C820.349667,422.58 820.979,422.678333 821.569,422.875 C822.159,423.071667 822.69,423.406 823.162,423.878 C823.712667,424.428667 824.096167,425.166167 824.3125,426.0905 C824.528833,427.014833 824.637,428.224333 824.637,429.719 L824.637,429.719 L824.637,445 L835.316,445 L835.316,425.766 C835.316,424.153333 835.158667,422.717667 834.844,421.459 C834.529333,420.200333 833.939333,419.059667 833.074,418.037 C832.012,416.778333 830.723833,415.804833 829.2095,415.1165 C827.695167,414.428167 825.876,414.084 823.752,414.084 C821.746,414.084 819.995667,414.388833 818.501,414.9985 C817.006333,415.608167 815.531333,416.798 814.076,418.568 L814.076,418.568 L814.076,414.733 L803.397,414.733 L803.397,445 L814.076,445 Z M858.857,460.222 C860.941667,460.222 862.878833,459.986 864.6685,459.514 C866.458167,459.042 868.061,458.393 869.477,457.567 C870.893,456.741 872.1025,455.7675 873.1055,454.6465 C874.1085,453.5255 874.846,452.316 875.318,451.018 C875.672,449.995333 875.947333,448.815333 876.144,447.478 C876.340667,446.140667 876.439,444.626333 876.439,442.935 L876.439,442.935 L876.439,414.733 L865.76,414.733 L865.76,417.919 C863.321333,415.244333 860.312333,413.907 856.733,413.907 C854.530333,413.907 852.494833,414.329833 850.6265,415.1755 C848.758167,416.021167 847.1455,417.1815 845.7885,418.6565 C844.4315,420.1315 843.359667,421.862167 842.573,423.8485 C841.786333,425.834833 841.393,427.988333 841.393,430.309 C841.393,432.590333 841.756833,434.665167 842.4845,436.5335 C843.212167,438.401833 844.234833,440.004667 845.5525,441.342 C846.870167,442.679333 848.433667,443.721667 850.243,444.469 C852.052333,445.216333 854.038667,445.59 856.202,445.59 C857.185333,445.59 858.09,445.521167 858.916,445.3835 C859.742,445.245833 860.528667,445.019667 861.276,444.705 C862.023333,444.390333 862.760833,443.987167 863.4885,443.4955 C864.216167,443.003833 864.973333,442.384333 865.76,441.637 L865.76,441.637 L865.76,444.528 C865.76,446.77 865.160167,448.520333 863.9605,449.779 C862.760833,451.037667 861.04,451.667 858.798,451.667 C856.162667,451.667 854.471333,450.664 853.724,448.658 L853.724,448.658 L841.688,448.658 C842.002667,450.31 842.632,451.834167 843.576,453.2305 C844.52,454.626833 845.7295,455.846167 847.2045,456.8885 C848.6795,457.930833 850.400333,458.747 852.367,459.337 C854.333667,459.927 856.497,460.222 858.857,460.222 Z M859.388,436.681 C858.404667,436.681 857.490167,436.504 856.6445,436.15 C855.798833,435.796 855.071167,435.304333 854.4615,434.675 C853.851833,434.045667 853.37,433.308167 853.016,432.4625 C852.662,431.616833 852.485,430.702333 852.485,429.719 C852.485,428.775 852.671833,427.89 853.0455,427.064 C853.419167,426.238 853.920667,425.520167 854.55,424.9105 C855.179333,424.300833 855.907,423.809167 856.733,423.4355 C857.559,423.061833 858.444,422.875 859.388,422.875 C860.292667,422.875 861.167833,423.052 862.0135,423.406 C862.859167,423.76 863.596667,424.251667 864.226,424.881 C864.855333,425.510333 865.356833,426.238 865.7305,427.064 C866.104167,427.89 866.291,428.794667 866.291,429.778 C866.291,430.722 866.104167,431.616833 865.7305,432.4625 C865.356833,433.308167 864.865167,434.045667 864.2555,434.675 C863.645833,435.304333 862.918167,435.796 862.0725,436.15 C861.226833,436.504 860.332,436.681 859.388,436.681 Z M890.068,446.239 C891.012,446.239 891.906833,446.062 892.7525,445.708 C893.598167,445.354 894.335667,444.862333 894.965,444.233 C895.594333,443.603667 896.086,442.866167 896.44,442.0205 C896.794,441.174833 896.971,440.28 896.971,439.336 C896.971,438.392 896.794,437.497167 896.44,436.6515 C896.086,435.805833 895.594333,435.068333 894.965,434.439 C894.335667,433.809667 893.598167,433.318 892.7525,432.964 C891.906833,432.61 891.012,432.433 890.068,432.433 C889.124,432.433 888.229167,432.61 887.3835,432.964 C886.537833,433.318 885.800333,433.809667 885.171,434.439 C884.541667,435.068333 884.05,435.805833 883.696,436.6515 C883.342,437.497167 883.165,438.392 883.165,439.336 C883.165,440.28 883.342,441.174833 883.696,442.0205 C884.05,442.866167 884.541667,443.603667 885.171,444.233 C885.800333,444.862333 886.537833,445.354 887.3835,445.708 C888.229167,446.062 889.124,446.239 890.068,446.239 Z M938.448,446.239 C941.162,446.239 943.590833,445.875167 945.7345,445.1475 C947.878167,444.419833 949.6875,443.397167 951.1625,442.0795 C952.6375,440.761833 953.7585,439.178667 954.5255,437.33 C955.2925,435.481333 955.676,433.416333 955.676,431.135 C955.676,427.752333 954.800833,425.008833 953.0505,422.9045 C951.300167,420.800167 948.537,419.118667 944.761,417.86 C943.817,417.545333 942.863167,417.250333 941.8995,416.975 C940.935833,416.699667 940.0705,416.375167 939.3035,416.0015 C938.5365,415.627833 937.917,415.185333 937.445,414.674 C936.973,414.162667 936.737,413.513667 936.737,412.727 C936.737,411.586333 937.209,410.662 938.153,409.954 C939.097,409.246 940.316333,408.892 941.811,408.892 C942.991,408.892 944.210333,409.137833 945.469,409.6295 C946.727667,410.121167 947.986333,410.878333 949.245,411.901 L949.245,411.901 L953.847,402.874 C951.644333,401.694 949.343333,400.799167 946.944,400.1895 C944.544667,399.579833 942.243667,399.275 940.041,399.275 C937.681,399.275 935.547167,399.629 933.6395,400.337 C931.731833,401.045 930.119167,402.038167 928.8015,403.3165 C927.483833,404.594833 926.461167,406.128833 925.7335,407.9185 C925.005833,409.708167 924.642,411.704333 924.642,413.907 C924.642,416.109667 924.986167,417.928833 925.6745,419.3645 C926.362833,420.800167 927.2675,421.99 928.3885,422.934 C929.5095,423.878 930.787833,424.635167 932.2235,425.2055 C933.659167,425.775833 935.124333,426.297 936.619,426.769 C937.877667,427.201667 938.9495,427.595 939.8345,427.949 C940.7195,428.303 941.437333,428.6865 941.988,429.0995 C942.538667,429.5125 942.932,429.964833 943.168,430.4565 C943.404,430.948167 943.522,431.528333 943.522,432.197 C943.522,433.298333 943.059833,434.281667 942.1355,435.147 C941.211167,436.012333 939.805,436.445 937.917,436.445 C936.265,436.445 934.593333,436.071333 932.902,435.324 C931.210667,434.576667 929.499667,433.436 927.769,431.902 L927.769,431.902 L922.813,441.224 C927.611667,444.567333 932.823333,446.239 938.448,446.239 Z M978.745,446.121 C981.380333,446.121 983.828833,445.727667 986.0905,444.941 C988.352167,444.154333 990.289333,443.043167 991.902,441.6075 C993.514667,440.171833 994.783167,438.460833 995.7075,436.4745 C996.631833,434.488167 997.094,432.295333 997.094,429.896 C997.094,427.496667 996.641667,425.303833 995.737,423.3175 C994.832333,421.331167 993.563833,419.620167 991.9315,418.1845 C990.299167,416.748833 988.371833,415.627833 986.1495,414.8215 C983.927167,414.015167 981.518,413.612 978.922,413.612 C976.286667,413.612 973.857833,414.025 971.6355,414.851 C969.413167,415.677 967.495667,416.807833 965.883,418.2435 C964.270333,419.679167 963.011667,421.3705 962.107,423.3175 C961.202333,425.2645 960.75,427.359 960.75,429.601 C960.75,432.079 961.202333,434.330833 962.107,436.3565 C963.011667,438.382167 964.2605,440.122667 965.8535,441.578 C967.4465,443.033333 969.344333,444.154333 971.547,444.941 C973.749667,445.727667 976.149,446.121 978.745,446.121 Z M978.922,436.74 C977.978,436.74 977.083167,436.563 976.2375,436.209 C975.391833,435.855 974.664167,435.363333 974.0545,434.734 C973.444833,434.104667 972.953167,433.367167 972.5795,432.5215 C972.205833,431.675833 972.019,430.741667 972.019,429.719 C972.019,428.775 972.205833,427.89 972.5795,427.064 C972.953167,426.238 973.444833,425.510333 974.0545,424.881 C974.664167,424.251667 975.391833,423.76 976.2375,423.406 C977.083167,423.052 977.978,422.875 978.922,422.875 C979.866,422.875 980.760833,423.052 981.6065,423.406 C982.452167,423.76 983.179833,424.251667 983.7895,424.881 C984.399167,425.510333 984.890833,426.247833 985.2645,427.0935 C985.638167,427.939167 985.825,428.834 985.825,429.778 C985.825,430.761333 985.638167,431.675833 985.2645,432.5215 C984.890833,433.367167 984.399167,434.104667 983.7895,434.734 C983.179833,435.363333 982.452167,435.855 981.6065,436.209 C980.760833,436.563 979.866,436.74 978.922,436.74 Z M1037.391,445.944 C1041.285,445.944 1044.37267,444.508333 1046.654,441.637 L1046.654,441.637 L1046.654,445 L1057.392,445 L1057.392,414.733 L1046.654,414.733 L1046.654,417.742 C1044.176,415.106667 1041.049,413.789 1037.273,413.789 C1035.031,413.789 1032.98567,414.211833 1031.137,415.0575 C1029.28833,415.903167 1027.69533,417.053667 1026.358,418.509 C1025.02067,419.964333 1023.97833,421.6655 1023.231,423.6125 C1022.48367,425.5595 1022.11,427.614667 1022.11,429.778 C1022.11,432.098667 1022.4935,434.242333 1023.2605,436.209 C1024.0275,438.175667 1025.09933,439.886667 1026.476,441.342 C1027.85267,442.797333 1029.46533,443.928167 1031.314,444.7345 C1033.16267,445.540833 1035.18833,445.944 1037.391,445.944 Z M1040.105,436.74 C1039.12167,436.74 1038.20717,436.563 1037.3615,436.209 C1036.51583,435.855 1035.78817,435.363333 1035.1785,434.734 C1034.56883,434.104667 1034.087,433.367167 1033.733,432.5215 C1033.379,431.675833 1033.202,430.761333 1033.202,429.778 C1033.202,428.834 1033.379,427.958833 1033.733,427.1525 C1034.087,426.346167 1034.56883,425.628333 1035.1785,424.999 C1035.78817,424.369667 1036.51583,423.878 1037.3615,423.524 C1038.20717,423.17 1039.12167,422.993 1040.105,422.993 C1041.049,422.993 1041.94383,423.17 1042.7895,423.524 C1043.63517,423.878 1044.36283,424.369667 1044.9725,424.999 C1045.58217,425.628333 1046.07383,426.365833 1046.4475,427.2115 C1046.82117,428.057167 1047.008,428.952 1047.008,429.896 C1047.008,430.84 1046.82117,431.725 1046.4475,432.551 C1046.07383,433.377 1045.58217,434.104667 1044.9725,434.734 C1044.36283,435.363333 1043.63517,435.855 1042.7895,436.209 C1041.94383,436.563 1041.049,436.74 1040.105,436.74 Z M1075.328,445 L1075.328,432.02 C1075.328,429.188 1075.9475,427.0345 1077.1865,425.5595 C1078.4255,424.0845 1080.284,423.347 1082.762,423.347 C1084.414,423.347 1085.948,423.701 1087.364,424.409 L1087.364,424.409 L1087.364,414.202 C1086.93133,414.123333 1086.54783,414.084 1086.2135,414.084 L1086.2135,414.084 L1085.299,414.084 C1083.09633,414.084 1081.169,414.565833 1079.517,415.5295 C1077.865,416.493167 1076.46867,417.879667 1075.328,419.689 L1075.328,419.689 L1075.328,414.733 L1064.649,414.733 L1064.649,445 L1075.328,445 Z M1108.132,446.121 C1116.47067,446.121 1121.68233,442.659667 1123.767,435.737 L1123.767,435.737 L1113.442,435.737 C1112.262,437.625 1110.51167,438.569 1108.191,438.569 C1103.86433,438.569 1101.701,436.268 1101.701,431.666 L1101.701,431.666 L1124.18,431.666 L1124.18,430.545 C1124.18,427.909667 1123.80633,425.539833 1123.059,423.4355 C1122.31167,421.331167 1121.23,419.551333 1119.814,418.096 C1118.398,416.640667 1116.66733,415.5295 1114.622,414.7625 C1112.57667,413.9955 1110.27567,413.612 1107.719,413.612 C1105.123,413.612 1102.7925,413.9955 1100.7275,414.7625 C1098.6625,415.5295 1096.90233,416.621 1095.447,418.037 C1093.99167,419.453 1092.87067,421.173833 1092.084,423.1995 C1091.29733,425.225167 1090.904,427.496667 1090.904,430.014 C1090.904,432.452667 1091.317,434.655333 1092.143,436.622 C1092.969,438.588667 1094.13917,440.28 1095.6535,441.696 C1097.16783,443.112 1098.987,444.2035 1101.111,444.9705 C1103.235,445.7375 1105.57533,446.121 1108.132,446.121 Z M1114.209,425.471 L1101.996,425.471 C1102.27133,423.897667 1102.93017,422.678333 1103.9725,421.813 C1105.01483,420.947667 1106.362,420.515 1108.014,420.515 C1109.58733,420.515 1110.92467,420.967333 1112.026,421.872 C1113.12733,422.776667 1113.855,423.976333 1114.209,425.471 L1114.209,425.471 Z M1169.433,445 L1176.631,428.421 L1184.183,445 L1191.322,445 L1207.134,414.733 L1195.275,414.733 L1187.664,431.135 L1180.112,414.733 L1173.386,414.733 L1165.834,430.663 L1158.577,414.733 L1146.659,414.733 L1162.176,445 L1169.433,445 Z M1226.84,446.121 C1235.17867,446.121 1240.39033,442.659667 1242.475,435.737 L1242.475,435.737 L1232.15,435.737 C1230.97,437.625 1229.21967,438.569 1226.899,438.569 C1222.57233,438.569 1220.409,436.268 1220.409,431.666 L1220.409,431.666 L1242.888,431.666 L1242.888,430.545 C1242.888,427.909667 1242.51433,425.539833 1241.767,423.4355 C1241.01967,421.331167 1239.938,419.551333 1238.522,418.096 C1237.106,416.640667 1235.37533,415.5295 1233.33,414.7625 C1231.28467,413.9955 1228.98367,413.612 1226.427,413.612 C1223.831,413.612 1221.5005,413.9955 1219.4355,414.7625 C1217.3705,415.5295 1215.61033,416.621 1214.155,418.037 C1212.69967,419.453 1211.57867,421.173833 1210.792,423.1995 C1210.00533,425.225167 1209.612,427.496667 1209.612,430.014 C1209.612,432.452667 1210.025,434.655333 1210.851,436.622 C1211.677,438.588667 1212.84717,440.28 1214.3615,441.696 C1215.87583,443.112 1217.695,444.2035 1219.819,444.9705 C1221.943,445.7375 1224.28333,446.121 1226.84,446.121 Z M1232.917,425.471 L1220.704,425.471 C1220.97933,423.897667 1221.63817,422.678333 1222.6805,421.813 C1223.72283,420.947667 1225.07,420.515 1226.722,420.515 C1228.29533,420.515 1229.63267,420.967333 1230.734,421.872 C1231.83533,422.776667 1232.563,423.976333 1232.917,425.471 L1232.917,425.471 Z M1255.337,446.239 C1256.281,446.239 1257.17583,446.062 1258.0215,445.708 C1258.86717,445.354 1259.60467,444.862333 1260.234,444.233 C1260.86333,443.603667 1261.355,442.866167 1261.709,442.0205 C1262.063,441.174833 1262.24,440.28 1262.24,439.336 C1262.24,438.392 1262.063,437.497167 1261.709,436.6515 C1261.355,435.805833 1260.86333,435.068333 1260.234,434.439 C1259.60467,433.809667 1258.86717,433.318 1258.0215,432.964 C1257.17583,432.61 1256.281,432.433 1255.337,432.433 C1254.393,432.433 1253.49817,432.61 1252.6525,432.964 C1251.80683,433.318 1251.06933,433.809667 1250.44,434.439 C1249.81067,435.068333 1249.319,435.805833 1248.965,436.6515 C1248.611,437.497167 1248.434,438.392 1248.434,439.336 C1248.434,440.28 1248.611,441.174833 1248.965,442.0205 C1249.319,442.866167 1249.81067,443.603667 1250.44,444.233 C1251.06933,444.862333 1251.80683,445.354 1252.6525,445.708 C1253.49817,446.062 1254.393,446.239 1255.337,446.239 Z" id="Ourindustryischanging.Soarewe."></path>
        </g>
    </g>
</svg>