<svg id="Layer_1" data-name="Layer 1" xmlns="http://www.w3.org/2000/svg" viewBox="0 0 483 411.31"><defs><style>.cls-1,.cls-3,.cls-4{fill:#fff;}.cls-2,.cls-3,.cls-4{isolation:isolate;}.cls-3{font-size:222px;font-family:FuturaPT-Bold, Futura PT;font-weight:700;letter-spacing:-0.07em;}.cls-4{font-size:48px;font-family:HelveticaNeue-Light, Helvetica Neue;font-weight:300;letter-spacing:-0.03em;}</style></defs><title>logo-group-5</title><g id="Page-1"><g id="Desktop-HD-Copy-7"><g id="date_logo-group" data-name="date,logo-group"><g id="conference-logo"><path id="Path" class="cls-1" d="M45.08,225.19c-8.26,0-11.37-7.06-11.37-14.06,0-7.36,3.11-14.42,11.37-14.42,4.58,0,8.57,3.17,9.16,7.35h8.91c-1.13-9.71-8.86-15.12-18.07-15.12-12.95,0-20.58,9.71-20.58,22.16,0,12.13,7.63,21.84,20.58,21.84,10.27,0,17.48-6.71,18.42-17.19H54.58C53.88,221.29,50.72,225.19,45.08,225.19Z" transform="translate(2.5 32.1)"/><path id="Path-2" data-name="Path" class="cls-1" d="M91.08,232.94c10.27,0,17.48-6.7,18.42-17.18h-8.9c-.7,5.51-3.85,9.41-9.52,9.41-8.26,0-11.37-7.06-11.37-14.06,0-7.35,3.11-14.41,11.37-14.41,4.58,0,8.57,3.18,9.15,7.35h8.91c-1.07-9.7-8.83-15.11-18.06-15.11-13,0-20.58,9.71-20.58,22.15C70.52,223.23,78.14,232.94,91.08,232.94Z" transform="translate(2.5 32.1)"/><rect id="Rectangle" class="cls-1" x="120" y="222.04" width="9" height="42"/><polygon id="Path-3" data-name="Path" class="cls-1" points="175.21 234.27 175.21 264.04 184 264.04 184 222.04 170.78 222.04 161.33 250.92 161.21 250.92 151.22 222.04 138 222.04 138 264.04 146.79 264.04 146.79 234.57 146.91 234.57 157.38 264.04 164.62 264.04 175.09 234.27 175.21 234.27"/><path id="Path-4" data-name="Path" class="cls-1" d="M250.5,209.36H232.85v6.89h9.3c-.53,5.71-4,8.94-10,8.94-8.29,0-11.41-7.06-11.41-14.06,0-7.36,3.12-14.42,11.41-14.42a8.62,8.62,0,0,1,8.89,7.06H250c-1.14-9.54-9.24-14.83-17.83-14.83-13,0-20.65,9.71-20.65,22.16,0,12.13,7.65,21.84,20.65,21.84a14.2,14.2,0,0,0,11.53-5.77l.83,4.77h6Z" transform="translate(2.5 32.1)"/><polygon id="Path-5" data-name="Path" class="cls-1" points="271.33 222.04 262 222.04 262 264.04 292 264.04 292 256.27 271.33 256.27 271.33 222.04"/><path id="Shape" class="cls-1" d="M314,188.94c-12.9,0-20.5,9.71-20.5,22.16,0,12.13,7.6,21.84,20.5,21.84s20.5-9.71,20.5-21.84C334.5,198.65,326.91,188.94,314,188.94Zm0,36.25c-8.23,0-11.33-7.06-11.33-14.06,0-7.36,3.1-14.42,11.33-14.42s11.33,7.06,11.33,14.42C325.33,218.13,322.23,225.19,314,225.19Z" transform="translate(2.5 32.1)"/><path id="Shape-2" data-name="Shape" class="cls-1" d="M371.85,209.35c3.63-2,5.68-4.88,5.68-9,0-7.82-5.39-10.41-13.35-10.41H344.5v42h20.25c7.55,0,14.75-3.65,14.75-12.18C379.54,214.53,376.94,210.59,371.85,209.35Zm-18.14-12.24h8.6c3.28,0,6.32.83,6.32,4.83,0,3.53-2.4,5-5.62,5h-9.3Zm9.83,27.65h-9.83V213.24h10c3.93,0,6.62,1.7,6.62,6s-3.16,5.53-6.79,5.53Z" transform="translate(2.5 32.1)"/><path id="Shape-3" data-name="Shape" class="cls-1" d="M398.4,189.94l-15.9,42h9.21l3.4-9.36h15.66l3.17,9.36h9.56l-15.66-42Zm-.88,25.76L403,200.29h.11l5.28,15.41Z" transform="translate(2.5 32.1)"/><polygon id="Path-6" data-name="Path" class="cls-1" points="439.33 222.04 430 222.04 430 264.04 460 264.04 460 256.27 439.33 256.27 439.33 222.04"/><path id="Path-7" data-name="Path" class="cls-1" d="M45.08,284.19c-8.26,0-11.37-7.06-11.37-14.06,0-7.36,3.11-14.42,11.37-14.42,4.58,0,8.57,3.17,9.15,7.35h8.91c-1.13-9.71-8.85-15.12-18.06-15.12-13,0-20.58,9.71-20.58,22.16,0,12.13,7.62,21.84,20.58,21.84,10.27,0,17.48-6.71,18.42-17.19H54.59C53.88,280.3,50.71,284.19,45.08,284.19Z" transform="translate(2.5 32.1)"/><path id="Shape-4" data-name="Shape" class="cls-1" d="M92,247.94c-12.9,0-20.5,9.71-20.5,22.16,0,12.13,7.6,21.84,20.5,21.84s20.5-9.69,20.5-21.81C112.5,257.65,104.9,247.94,92,247.94Zm0,36.25c-8.24,0-11.33-7.06-11.33-14.06,0-7.36,3.09-14.42,11.33-14.42s11.33,7.06,11.33,14.42C103.33,277.13,100.23,284.19,92,284.19Z" transform="translate(2.5 32.1)"/><polygon id="Path-8" data-name="Path" class="cls-1" points="151.46 309.21 151.35 309.21 134.11 281.04 125 281.04 125 323.04 133.53 323.04 133.53 294.92 133.65 294.92 150.89 323.04 160 323.04 160 281.04 151.46 281.04 151.46 309.21"/><polygon id="Path-9" data-name="Path" class="cls-1" points="171 323.04 180.38 323.04 180.38 305.68 198.25 305.68 198.25 298.51 180.38 298.51 180.38 288.8 201 288.8 201 281.04 171 281.04 171 323.04"/><polygon id="Path-10" data-name="Path" class="cls-1" points="216.27 304.98 236.7 304.98 236.7 297.8 216.27 297.8 216.27 288.8 238.53 288.8 238.53 281.04 207 281.04 207 323.04 239 323.04 239 315.27 216.27 315.27 216.27 304.98"/><path id="Shape-5" data-name="Shape" class="cls-1" d="M274.65,271.17v-.11c4.63-1.89,6.62-5.59,6.62-10.53,0-6.36-4.74-11.59-12.23-11.59H246.5v42h9.19V274.47h9.25c5.27,0,7,3.4,7.14,8,.12,3.76.47,6.58,1.23,8.47h9.19c-1.23-1.94-1.64-4.77-1.76-9.94C280.69,277.58,279.28,272.41,274.65,271.17Zm-8.86-3.29h-10.1V256.11h10.1c4.09,0,6.32,1.77,6.32,5.83S269.86,267.88,265.79,267.88Z" transform="translate(2.5 32.1)"/><polygon id="Path-11" data-name="Path" class="cls-1" points="302.27 304.98 322.7 304.98 322.7 297.8 302.27 297.8 302.27 288.8 324.53 288.8 324.53 281.04 293 281.04 293 323.04 325 323.04 325 315.27 302.27 315.27 302.27 304.98"/><polygon id="Path-12" data-name="Path" class="cls-1" points="361.46 309.21 361.35 309.21 344.11 281.04 335 281.04 335 323.04 343.53 323.04 343.53 294.92 343.65 294.92 360.89 323.04 370 323.04 370 281.04 361.46 281.04 361.46 309.21"/><path id="Path-13" data-name="Path" class="cls-1" d="M397.08,284.19c-8.26,0-11.37-7.06-11.37-14.06,0-7.36,3.11-14.42,11.37-14.42,4.58,0,8.57,3.17,9.16,7.35h8.91c-1.13-9.71-8.86-15.12-18.07-15.12-12.95,0-20.58,9.71-20.58,22.16,0,12.13,7.63,21.84,20.58,21.84,10.27,0,17.49-6.71,18.42-17.19h-8.89C405.91,280.3,402.75,284.19,397.08,284.19Z" transform="translate(2.5 32.1)"/><polygon id="Path-14" data-name="Path" class="cls-1" points="437.27 304.98 457.7 304.98 457.7 297.8 437.27 297.8 437.27 288.8 459.53 288.8 459.53 281.04 428 281.04 428 323.04 460 323.04 460 315.27 437.27 315.27 437.27 304.98"/><path id="Shape-6" data-name="Shape" class="cls-1" d="M.5,153.94v170h480v-170ZM4.06,176H476.94V301.91H4.06ZM476.94,320.37H4.06V305.48H476.94ZM4.06,172.44V157.5H476.94v14.94Z" transform="translate(2.5 32.1)"/></g><g id="_2020" data-name="2020" class="cls-2"><text class="cls-3" transform="translate(0 185.04)">2020</text></g><g id="Chicago-_-October-28" data-name="Chicago-|-October-28" class="cls-2"><text class="cls-4" transform="translate(3 401.04) scale(0.99 1)">Chicago | October 28-29</text></g></g></g></g></svg>